<svg width="240" height="48" viewBox="0 0 240 48" fill="none" xmlns="http://www.w3.org/2000/svg">
<path fill-rule="evenodd" clip-rule="evenodd" d="M0 24C0 10.7452 10.7452 0 24 0H156C163.875 0 170.863 3.79244 175.24 9.65049C177.832 13.1204 181.53 16 185.861 16C190.193 16 193.891 13.1204 196.483 9.65049C200.859 3.79244 207.848 0 215.723 0C228.977 0 239.723 10.7452 239.723 24C239.723 37.2548 228.977 48 215.723 48C209.491 48 203.813 45.6247 199.547 41.73C195.68 38.1999 191.097 35 185.861 35C180.625 35 176.043 38.1999 172.176 41.73C167.909 45.6247 162.232 48 156 48H24C10.7452 48 0 37.2548 0 24Z" fill="#EEF5FB"/>
</svg>
