<svg width="16" height="11" viewBox="0 0 16 11" fill="none" xmlns="http://www.w3.org/2000/svg">
<path fill-rule="evenodd" clip-rule="evenodd" d="M1.43177 0.0265302C1.24146 0.0504766 0.846813 0.17877 0.849831 0.215688C0.85075 0.226792 2.32572 1.28597 4.12755 2.56939C7.65462 5.08167 7.59792 5.04543 8.00028 5.04543C8.40686 5.04543 8.34443 5.08534 11.8746 2.56939C13.6755 1.28597 15.1496 0.226084 15.1506 0.214078C15.154 0.172462 14.7794 0.0556264 14.5481 0.0261439C14.2729 -0.00897109 1.7108 -0.00858482 1.43177 0.0265302ZM0.00936231 1.61401C0.00024176 1.63735 -0.00274375 3.4659 0.00276795 5.6775L0.0127415 9.6986L0.0905287 9.90421C0.317001 10.5028 0.809609 10.8886 1.45241 10.9705C1.76071 11.0098 14.2399 11.0098 14.5481 10.9705C15.1909 10.8886 15.6835 10.5029 15.91 9.90421L15.9878 9.6986L15.9978 5.63511C16.0043 3.00197 15.9964 1.57162 15.9757 1.57162C15.958 1.57162 14.2895 2.75089 12.2679 4.19224C9.61147 6.0861 8.54157 6.8314 8.40982 6.87978C8.15605 6.97293 7.81472 6.96958 7.57194 6.87161C7.45337 6.82374 6.11006 5.88494 3.72746 4.18484C1.71323 2.74757 0.0564086 1.57162 0.0455821 1.57162C0.0347883 1.57162 0.0184829 1.59071 0.00936231 1.61401Z" fill="#3185C8"/>
</svg>
