<svg width="30" height="30" viewBox="0 0 30 30" fill="none" xmlns="http://www.w3.org/2000/svg">
<path fill-rule="evenodd" clip-rule="evenodd" d="M13.525 0.0374542C8.81757 0.557912 4.7687 3.07559 2.22774 7.06234C1.48313 8.23056 0.710514 10.0905 0.369325 11.5361C0.0716646 12.7973 0 13.4671 0 14.989C0 16.5109 0.0716646 17.1807 0.369325 18.4419C0.710514 19.8875 1.48313 21.7474 2.22774 22.9157C3.49203 24.8994 5.29579 26.6714 7.24227 27.8421C11.6225 30.4765 17.008 30.7133 21.5812 28.4727C23.1714 27.6936 24.3517 26.8491 25.61 25.5901C27.9505 23.2483 29.3782 20.412 29.8885 17.0908C30.0372 16.1237 30.0372 13.8543 29.8885 12.8872C29.6409 11.2754 29.1884 9.82027 28.4976 8.41347C27.7204 6.83108 26.875 5.65163 25.6111 4.38661C24.3567 3.13119 23.1745 2.28592 21.5812 1.50527C20.1925 0.824896 18.719 0.364729 17.1623 0.125368C16.4227 0.0116324 14.2363 -0.0412119 13.525 0.0374542ZM19.4154 5.86403C20.2226 5.95639 20.8518 6.13456 21.5211 6.46033C22.9688 7.16496 23.8594 8.41563 24.1684 10.1778C24.2983 10.9187 24.2983 19.0593 24.1684 19.8002C23.8594 21.5624 22.9688 22.813 21.5211 23.5177C20.8518 23.8434 20.2226 24.0216 19.4154 24.114C18.7004 24.1958 11.2955 24.1958 10.5805 24.114C7.92964 23.8107 6.2659 22.3007 5.8275 19.8002C5.69758 19.0593 5.69758 10.9187 5.8275 10.1778C6.25977 7.71244 7.93836 6.16584 10.506 5.86727C11.1458 5.79287 18.7693 5.79011 19.4154 5.86403ZM12.2624 7.5452C10.2661 7.58952 9.87445 7.65137 9.14986 8.03684C8.69877 8.27674 8.1076 8.90529 7.86315 9.40485C7.43917 10.2713 7.4527 10.0874 7.4527 14.989C7.4527 19.9186 7.43635 19.7066 7.88485 20.5961C8.31496 21.4492 9.0509 22.0184 10.068 22.2847C10.9427 22.5137 19.0158 22.5161 19.927 22.2876C21.2003 21.9684 22.0625 21.1102 22.4333 19.793C22.5352 19.4311 22.5432 19.0814 22.5432 14.989C22.5432 10.0874 22.5567 10.2713 22.1327 9.40485C21.8854 8.89946 21.2975 8.27704 20.8348 8.03071C20.1079 7.64375 19.7657 7.59438 17.4328 7.54034C15.1206 7.48677 14.8844 7.48701 12.2624 7.5452ZM20.4911 9.36419C20.8837 9.66324 20.9949 10.2937 20.7205 10.664C20.3006 11.2305 19.4812 11.227 19.1035 10.657C18.9736 10.4609 18.9551 10.3761 18.9766 10.0782C19.0065 9.66522 19.1359 9.45937 19.477 9.28222C19.7996 9.11468 20.2068 9.14759 20.4911 9.36419ZM15.9815 10.2152C16.904 10.4055 17.6417 10.7964 18.3547 11.4728C19.3546 12.4212 19.8678 13.6138 19.8678 14.989C19.8678 16.3333 19.3672 17.5302 18.4167 18.4584C17.464 19.3889 16.3261 19.8531 14.9979 19.8531C13.6211 19.8531 12.4271 19.3406 11.4776 18.3419C10.5682 17.3854 10.1281 16.292 10.1281 14.989C10.1281 13.3354 10.9289 11.8449 12.3125 10.9232C13.3641 10.2227 14.7353 9.95803 15.9815 10.2152ZM14.6071 11.8729C13.3368 12.026 12.2415 12.9959 11.936 14.2384C11.8417 14.622 11.8413 15.3531 11.9351 15.7396C12.2683 17.1123 13.5602 18.1212 14.9845 18.1211C15.5738 18.121 15.9423 18.031 16.4707 17.7583C17.4912 17.2315 18.1337 16.1615 18.1337 14.989C18.1337 13.0955 16.4928 11.6456 14.6071 11.8729Z" fill="#3185C8"/>
</svg>
