<svg width="22" height="24" viewBox="0 0 22 24" fill="none" xmlns="http://www.w3.org/2000/svg">
<path fill-rule="evenodd" clip-rule="evenodd" d="M10.5621 0.0463402C10.1178 0.198237 9.77729 0.503531 9.5852 0.922243L9.46682 1.18033V5.24033V9.30033L9.61706 9.61412C9.78044 9.95541 10.0139 10.1937 10.3533 10.3657C10.5256 10.453 10.638 10.4715 10.9957 10.4715C11.368 10.4715 11.4609 10.4549 11.6533 10.3542C11.9656 10.1907 12.2579 9.88338 12.4022 9.56677L12.5246 9.29836L12.5389 5.40358C12.5541 1.27676 12.5498 1.17536 12.3409 0.802209C12.1992 0.549048 11.8589 0.23207 11.6046 0.116446C11.3434 -0.0024149 10.8096 -0.0382656 10.5621 0.0463402ZM4.853 4.52454C4.17455 4.77385 2.76447 6.3021 1.98525 7.63252C0.96643 9.37208 0.497545 11.1414 0.50001 13.2371C0.502155 15.0755 0.887111 16.6812 1.69887 18.2376C3.61238 21.9063 7.34191 24.1386 11.3152 23.9933C12.917 23.9347 14.2432 23.5971 15.6031 22.9017C16.7282 22.3264 17.5281 21.7442 18.3691 20.8888C20.5671 18.6533 21.6516 15.7441 21.4829 12.5362C21.3568 10.1377 20.443 7.88475 18.8303 5.9962C18.3622 5.44812 17.6701 4.80787 17.3273 4.60586C17.1055 4.47522 17.0555 4.46508 16.632 4.46508C16.1466 4.46508 15.9813 4.52036 15.619 4.80393C15.2499 5.09294 15.0134 5.74276 15.0979 6.23608C15.1819 6.72654 15.2973 6.89923 16.0625 7.67945C16.7932 8.42443 17.0362 8.73695 17.4294 9.43698C18.101 10.6326 18.3922 11.7804 18.3918 13.2292C18.391 15.3758 17.5627 17.2995 15.9942 18.7972C14.9077 19.8346 13.5929 20.4863 12.091 20.7316C11.5497 20.8201 10.2658 20.8064 9.72987 20.7066C7.40813 20.2741 5.43548 18.7643 4.38594 16.6167C3.79954 15.4165 3.56912 14.3049 3.61585 12.9009C3.65651 11.6799 3.88461 10.782 4.43113 9.69174C4.81047 8.93493 5.31175 8.2685 6.01928 7.58025C6.75971 6.86004 6.90466 6.60426 6.90721 6.01361C6.90917 5.55914 6.77628 5.21804 6.47753 4.91087C6.07674 4.49878 5.37629 4.33224 4.853 4.52454Z" fill="#3185C8"/>
</svg>
