<svg width="30" height="30" viewBox="0 0 30 30" fill="none" xmlns="http://www.w3.org/2000/svg">
<path fill-rule="evenodd" clip-rule="evenodd" d="M13.7964 0.0176154C10.9671 0.312014 8.58398 1.16774 6.44771 2.65652C2.91742 5.11683 0.688486 8.78009 0.0761761 13.1283C-0.0372668 13.9338 -0.0207671 16.263 0.104126 17.0786C0.611507 20.3922 2.00259 23.205 4.2711 25.5044C6.71717 27.9838 9.59217 29.4154 13.1505 29.9257C13.8498 30.026 16.1528 30.0244 16.8791 29.9231C20.247 29.4534 23.1465 28.0443 25.5058 25.7307C27.9501 23.3336 29.4394 20.3514 29.9233 16.8846C30.0256 16.1517 30.0256 13.8612 29.9233 13.1283C29.4487 9.72826 27.978 6.73978 25.6227 4.38934C23.2969 2.06843 20.3953 0.615745 17.1024 0.12373C16.5224 0.0370425 14.2962 -0.0343856 13.7964 0.0176154ZM18.1415 8.49173C20.9578 8.58922 22.1389 8.71711 22.7343 8.98909C23.3881 9.28777 23.8824 9.94342 24.063 10.7513C24.3214 11.9082 24.4528 14.6823 24.3416 16.6365C24.1959 19.1964 24.0119 19.9506 23.3783 20.5839C23.0203 20.9418 22.5753 21.1584 21.992 21.2588C20.4625 21.5221 15.5176 21.6504 11.888 21.5209C8.13473 21.3869 7.3522 21.2511 6.67178 20.6149C6.00198 19.9887 5.81091 19.245 5.65919 16.673C5.54704 14.7725 5.67234 12.0608 5.93023 10.8069C6.05336 10.2082 6.30867 9.73201 6.6965 9.37769C7.26312 8.86008 7.70633 8.73278 9.37714 8.60771C11.5202 8.44725 15.3809 8.39618 18.1415 8.49173ZM13.1211 15.0065V17.8334L13.4294 17.6544C13.5989 17.5559 14.6946 16.9265 15.8643 16.2556C17.0339 15.5847 17.9911 15.0226 17.9913 15.0065C17.9915 14.9903 17.0345 14.4283 15.8647 13.7575C14.6948 13.0867 13.5989 12.4573 13.4294 12.3588L13.1211 12.1796V15.0065Z" fill="#3185C8"/>
</svg>
