<svg width="30" height="30" viewBox="0 0 30 30" fill="none" xmlns="http://www.w3.org/2000/svg">
<path fill-rule="evenodd" clip-rule="evenodd" d="M18.1641 2.13867C18.1641 3.31494 18.1759 4.27734 18.1904 4.27734C18.2049 4.27734 18.3302 4.20088 18.4688 4.10736C19.283 3.55816 20.3997 3.66691 21.1498 4.36852C21.8655 5.03801 22.026 6.09094 21.5489 6.98836C20.9536 8.10832 19.4226 8.46955 18.4027 7.73068L18.1641 7.55783V9.69691V11.8359H20.2764H22.3888L22.237 12.0349C21.8022 12.6049 21.7297 13.5953 22.0735 14.2685C22.2942 14.7008 22.7442 15.1324 23.1904 15.3397C23.4741 15.4714 23.6066 15.4955 24.0555 15.4967C24.5521 15.498 24.6142 15.484 25.0338 15.2767C26.2126 14.6944 26.6207 13.3725 25.983 12.2021L25.7835 11.8359H27.8917H30L29.9994 6.48926L29.9988 1.14258L29.8609 0.846328C29.6996 0.499863 29.3337 0.164297 29.0122 0.0680273C28.8472 0.0185742 27.3354 0 23.4746 0H18.1641V2.13867ZM0.964629 6.42135C0.620918 6.5434 0.324961 6.81228 0.151758 7.15986L0 7.46443V11.9646V16.4648H0.990059H1.98018L2.0475 16.078C2.26547 14.8263 3.06779 13.7381 4.1758 13.1913C4.78406 12.891 5.27748 12.7752 5.94727 12.7752C6.58904 12.7752 7.10121 12.8895 7.64561 13.1541C8.80535 13.718 9.58723 14.7556 9.80912 16.0254L9.88078 16.4355L10.8584 16.4516L11.8359 16.4677V15.2369V14.0061L12.2021 14.2056C12.7027 14.4784 13.1906 14.5682 13.6651 14.4748C14.4183 14.3266 14.9849 13.8864 15.3118 13.1954C15.4777 12.8445 15.4974 12.7467 15.4968 12.2754C15.4963 11.8279 15.4726 11.6973 15.3401 11.413C15.132 10.9665 14.7005 10.5168 14.2685 10.2962C13.5953 9.95238 12.6049 10.0249 12.0349 10.4597L11.8359 10.6114V8.46978V6.32812L6.51855 6.33275C2.05939 6.33662 1.16297 6.35092 0.964629 6.42135ZM5.36133 14.551C4.46092 14.8512 3.90205 15.4792 3.74795 16.3639C3.66229 16.856 3.7449 17.2952 4.01777 17.7979L4.21652 18.1641H2.10826H0L0.000585937 23.5107L0.00117187 28.8574L0.139629 29.1504C0.306094 29.5025 0.524824 29.7178 0.878906 29.8781C1.13672 29.9948 1.2423 29.9975 5.61035 29.9987L10.0781 30V29.0039C10.0781 28.4561 10.0638 28.0078 10.0464 28.0078C10.0289 28.0078 9.81135 27.9659 9.56297 27.9147C7.7349 27.5379 6.43166 25.9577 6.42603 24.1113C6.42393 23.4048 6.52002 22.988 6.83719 22.3281C7.31965 21.3246 8.31193 20.5136 9.37875 20.2509C9.59027 20.1988 9.8342 20.1562 9.92074 20.1562H10.0781V19.1602V18.1641H8.84467H7.61121L7.76297 17.9651C8.19779 17.3951 8.27027 16.4047 7.9265 15.7315C7.70689 15.3013 7.2549 14.8665 6.82107 14.6679C6.42691 14.4874 5.72145 14.4309 5.36133 14.551ZM11.8164 18.2031C11.7949 18.2246 11.7773 19.1582 11.7773 20.2778V22.3134L11.3593 22.0991C10.9593 21.8941 10.9155 21.8848 10.3485 21.8848C9.81135 21.8848 9.72305 21.9009 9.40506 22.057C8.95822 22.2764 8.56547 22.6692 8.34609 23.116C8.19029 23.4333 8.17383 23.5229 8.17383 24.054C8.17383 24.5991 8.1876 24.6691 8.36607 25.0316C8.95723 26.2325 10.4559 26.6518 11.5576 25.9246L11.7773 25.7796V27.8898V30H17.1565H22.5356L22.8401 29.8482C23.0077 29.7647 23.223 29.6014 23.3188 29.4853C23.6851 29.0409 23.6719 29.2667 23.6719 23.4564V18.1641H21.5009H19.33L19.4776 18.3577C20.252 19.3729 19.9013 20.9453 18.7657 21.5489C17.8673 22.0265 16.8124 21.8624 16.1367 21.14C15.4444 20.3999 15.3387 19.2783 15.8847 18.4688C15.9782 18.3302 16.0547 18.2049 16.0547 18.1904C16.0547 18.1477 11.8592 18.1603 11.8164 18.2031Z" fill="white"/>
</svg>
