<svg width="29" height="34" viewBox="0 0 29 34" fill="none" xmlns="http://www.w3.org/2000/svg">
<path fill-rule="evenodd" clip-rule="evenodd" d="M13.4686 0.727756C12.2157 1.03109 11.1095 2.13725 10.7793 3.41707C10.6496 3.91996 10.6496 4.75003 10.7793 5.25292C11.1103 6.53587 12.1856 7.61115 13.4686 7.94217C13.9715 8.0719 14.8015 8.0719 15.3044 7.94217C16.5874 7.61115 17.6627 6.53587 17.9937 5.25292C18.1234 4.75003 18.1234 3.91996 17.9937 3.41707C17.6595 2.12158 16.5532 1.02604 15.2751 0.724751C14.7706 0.605887 13.9666 0.607229 13.4686 0.727756ZM6.10556 2.36027C4.80356 2.51411 3.67962 3.48242 3.29898 4.77823C3.16656 5.22907 3.16644 6.1271 3.29873 6.57257C3.62891 7.68449 4.59537 8.6104 5.73561 8.90741C6.34726 9.06668 6.45429 9.04392 6.81204 8.67837C7.40246 8.07491 8.46859 7.47701 9.24905 7.31153C9.41318 7.27674 9.47495 7.2121 9.58211 6.96306C10.09 5.78247 9.85628 4.41083 8.98357 3.44975C8.23381 2.62409 7.19651 2.23143 6.10556 2.36027ZM21.8661 2.35612C21.0785 2.44691 20.3532 2.82889 19.7894 3.44975C18.9167 4.41083 18.683 5.78247 19.1909 6.96306C19.298 7.2121 19.3598 7.27674 19.5239 7.31153C20.3044 7.47701 21.3705 8.07491 21.961 8.67837C22.3187 9.04392 22.4257 9.06668 23.0374 8.90741C24.1776 8.6104 25.1441 7.68449 25.4743 6.57257C25.6066 6.1271 25.6064 5.22907 25.474 4.77823C25.0092 3.19558 23.4813 2.16992 21.8661 2.35612ZM9.59816 9.16764C8.74827 9.39616 7.88866 10.0895 7.49683 10.8626C7.12598 11.5942 7.09382 11.9103 7.11256 14.6449L7.12931 17.091H14.3865H21.6437L21.6604 14.6449C21.6792 11.9103 21.647 11.5942 21.2762 10.8626C20.8774 10.0758 20.0197 9.39169 19.1473 9.16444C18.6035 9.02282 10.1262 9.02563 9.59816 9.16764ZM2.21258 10.0058C1.14875 10.2845 0.272193 11.2293 0.0652827 12.3205C0.028709 12.5133 0 13.645 0 14.8938V17.123H2.62154H5.24308L5.24391 14.5174C5.24487 11.6573 5.29449 11.155 5.65345 10.3708C5.74424 10.1725 5.81854 9.98492 5.81854 9.95398C5.81854 9.92303 5.09333 9.89982 4.20405 9.90238C2.96554 9.90589 2.50178 9.93 2.21258 10.0058ZM22.9545 9.95398C22.9545 9.98492 23.0288 10.1725 23.1195 10.3708C23.4785 11.155 23.5281 11.6573 23.5291 14.5174L23.5299 17.123H26.1515H28.773V14.8938C28.773 13.645 28.7443 12.5133 28.7077 12.3205C28.5566 11.5238 27.9971 10.7256 27.3056 10.3204C26.6793 9.95334 26.3149 9.89777 24.5329 9.89777C23.6648 9.89777 22.9545 9.92309 22.9545 9.95398ZM0 20.0263V21.0753L0.303715 21.1136C0.470726 21.1346 1.31237 21.2237 2.17396 21.3116C4.34574 21.5331 4.12905 21.4712 4.25163 21.9047C4.42836 22.5294 4.72632 23.2688 5.04697 23.8786L5.35485 24.4639L4.04753 26.0794L2.74015 27.6948L4.19894 29.1546C5.00119 29.9574 5.6725 30.6143 5.69066 30.6143C5.70888 30.6143 6.43959 30.0349 7.31461 29.3267L8.9055 28.039L9.64515 28.4071C10.052 28.6096 10.717 28.8842 11.1229 29.0174L11.8609 29.2595L11.9332 29.921C11.9731 30.2847 12.071 31.2082 12.151 31.9731L12.2962 33.3637H14.3865H16.4768L16.622 31.9731C16.702 31.2082 16.7999 30.2847 16.8397 29.921L16.9121 29.2595L17.6501 29.0174C18.056 28.8842 18.721 28.6096 19.1278 28.4071L19.8675 28.039L21.4584 29.3267C22.3334 30.0349 23.0641 30.6143 23.0823 30.6143C23.1005 30.6143 23.7718 29.9574 24.5741 29.1546L26.0328 27.6948L24.7255 26.0794L23.4181 24.4639L23.726 23.8786C24.0467 23.2688 24.3446 22.5294 24.5214 21.9047C24.6439 21.4712 24.4272 21.5331 26.599 21.3116C27.4606 21.2237 28.3022 21.1346 28.4693 21.1136L28.773 21.0753V20.0263V18.9773H23.987H19.2009L19.1625 19.476C19.1147 20.0963 18.8762 20.8625 18.5614 21.407C18.4251 21.6426 18.0714 22.073 17.7445 22.4009C17.2593 22.8875 17.0717 23.0266 16.5605 23.2784C15.7826 23.6617 15.2388 23.7895 14.3865 23.7895C13.5342 23.7895 12.9904 23.6617 12.2125 23.2784C11.7013 23.0266 11.5137 22.8875 11.0285 22.4009C10.7016 22.073 10.3479 21.6426 10.2116 21.407C9.89682 20.8625 9.65833 20.0963 9.6105 19.476L9.57207 18.9773H4.78604H0V20.0263Z" fill="white"/>
</svg>
