<svg width="31" height="26" viewBox="0 0 31 26" fill="none" xmlns="http://www.w3.org/2000/svg">
<path fill-rule="evenodd" clip-rule="evenodd" d="M21.6855 0.288666C21.5888 0.331326 21.4611 0.420806 21.4016 0.48755C21.1269 0.79578 21.1341 0.569998 21.1314 8.98161L21.1288 16.9071H20.0106C19.3439 16.9071 18.9002 16.9292 18.9118 16.9618C18.9226 16.9918 19.6301 17.8142 20.4842 18.7893C22.2498 20.8051 22.3884 20.976 22.4415 21.2016C22.5335 21.5929 22.4301 21.7387 20.6297 23.7564C19.6795 24.8213 18.9021 25.7068 18.9021 25.724C18.9021 25.7413 20.7637 25.7555 23.0391 25.7555C26.6678 25.7555 27.1998 25.7443 27.3689 25.664C27.5558 25.5753 30.6236 22.133 30.8647 21.7415C31.007 21.5103 31.0059 21.0905 30.8622 20.8625C30.6747 20.565 27.6271 17.1782 27.4348 17.0536C27.2635 16.9427 27.1383 16.9355 25.0996 16.919L22.9454 16.9017V12.7146V8.52747H26.6136C30.6591 8.52747 30.5398 8.5379 30.8081 8.16117C30.9511 7.96035 31.0117 7.51372 30.9254 7.2969C30.8932 7.21633 30.3901 6.54391 29.8073 5.80263C29.2244 5.06136 28.76 4.42117 28.7752 4.37991C28.7904 4.33872 29.2846 3.66706 29.8735 2.8874L30.9441 1.46978V1.11643C30.9441 0.844827 30.9139 0.720773 30.8134 0.579902C30.5362 0.191275 30.7267 0.206218 26.0716 0.208738C22.709 0.210554 21.8259 0.226669 21.6855 0.288666ZM14.0984 5.22268C13.3903 5.41295 12.7446 5.95862 12.414 6.64593C12.2281 7.0325 12.1998 7.15158 12.1767 7.64498C12.1548 8.11324 12.1715 8.26718 12.2785 8.58291C12.5205 9.29658 13.0019 9.85087 13.654 10.1665L13.9212 10.2959V13.6015V16.9071H11.6896C10.3342 16.9071 9.46555 16.9285 9.47745 16.9618C9.48817 16.9918 10.1958 17.8145 11.0498 18.7899C12.9266 20.9334 12.9105 20.9133 12.9822 21.1799C13.0959 21.602 13.0306 21.6962 11.1953 23.7544C10.2451 24.8201 9.46766 25.7063 9.46766 25.7237C9.46766 25.7412 11.06 25.7555 13.0063 25.7555H16.5449L18.4864 23.5759C19.5541 22.3771 20.4207 21.3753 20.412 21.3497C20.4034 21.324 19.5311 20.314 18.4736 19.1051L16.551 16.9071H16.115H15.6791V13.6032V10.2994L16.0138 10.1313C16.1979 10.0388 16.491 9.82116 16.6651 9.64759C17.5038 8.81139 17.6778 7.52883 17.0977 6.45724C16.9224 6.13307 16.3637 5.59162 16.0279 5.42033C15.4703 5.13584 14.711 5.05808 14.0984 5.22268ZM5.48435 9.32459C4.77631 9.51486 4.13055 10.0605 3.79999 10.7478C3.61406 11.1344 3.58576 11.2535 3.56267 11.7469C3.54075 12.2152 3.55745 12.3691 3.66451 12.6848C3.90647 13.3985 4.38791 13.9528 5.04 14.2685L5.30715 14.3978V15.6494V16.901L3.43615 16.9187C1.64414 16.9356 1.55824 16.9416 1.39985 17.059C1.30896 17.1264 1.17524 17.2688 1.10269 17.3753L0.970845 17.569V21.3262C0.970845 25.5567 0.949925 25.3553 1.41643 25.6227C1.64368 25.753 1.65756 25.7536 4.37707 25.7546L7.10936 25.7555L9.05091 23.5745C10.1187 22.3749 10.9855 21.374 10.9772 21.3503C10.9688 21.3266 10.0851 20.3038 9.01352 19.0774L7.06511 16.8475V15.6244V14.4013L7.39983 14.2332C7.58389 14.1407 7.87694 13.9231 8.05104 13.7495C8.88982 12.9133 9.06374 11.6307 8.48373 10.5592C8.30834 10.235 7.74967 9.69353 7.41389 9.52225C6.85627 9.23775 6.097 9.15999 5.48435 9.32459Z" fill="white"/>
</svg>
