<svg width="30" height="31" viewBox="0 0 30 31" fill="none" xmlns="http://www.w3.org/2000/svg">
<path fill-rule="evenodd" clip-rule="evenodd" d="M7.69463 5.37813C3.7978 7.81347 0.54182 9.86956 0.459056 9.94732L0.308594 10.0887V20.3636V30.6384L0.462057 30.7918L0.615457 30.9453H7.55699H14.4985V25.319V19.6926L13.6914 18.8961C13.2476 18.4579 12.7717 17.9228 12.6338 17.7069C11.6747 16.2047 11.5697 14.4572 12.3417 12.8486C12.6656 12.1737 13.0867 11.661 14.0783 10.7341C14.668 10.1829 14.8509 10.046 14.9974 10.046C15.1437 10.046 15.327 10.1827 15.9128 10.7284C16.869 11.6192 17.3119 12.1596 17.6502 12.8486C18.0311 13.6243 18.1464 14.1265 18.1452 15.0052C18.1442 15.861 18.0329 16.3768 17.6948 17.0925C17.3758 17.768 17.0105 18.2361 16.1857 19.0265L15.4986 19.6849V25.3151V30.9453H22.4401H29.3816L29.535 30.7918L29.6885 30.6384L29.6865 20.3682C29.6849 12.1242 29.6687 10.0773 29.6045 9.99289C29.5605 9.93501 26.2977 7.87448 22.3539 5.41401C16.5632 1.80122 15.1444 0.941264 14.9815 0.945327C14.8274 0.94914 13.108 1.99513 7.69463 5.37813ZM10.279 18.9053C10.9961 19.0996 11.5481 19.4283 12.1253 20.0046C12.5298 20.4085 12.7143 20.6507 12.8884 21.0062C13.2384 21.721 13.3088 22.1203 13.3098 23.3972C13.3109 24.6741 13.2956 24.7139 12.7712 24.7925C12.3213 24.86 10.7067 24.7745 10.279 24.6606C9.55582 24.4679 9.00948 24.1464 8.42719 23.5707C7.98193 23.1305 7.84441 22.9453 7.63662 22.5064C7.26869 21.7292 7.21818 21.4484 7.21699 20.1727L7.21599 19.058L7.39983 18.8996L7.58368 18.7413L8.74381 18.7725C9.53125 18.7936 10.0244 18.8363 10.279 18.9053ZM22.6057 18.9069L22.7811 19.0581L22.777 20.204C22.7724 21.504 22.7042 21.8664 22.3263 22.6002C22.0031 23.2277 21.1895 24.0263 20.562 24.3321C19.884 24.6626 19.4601 24.7555 18.4337 24.7989C17.3939 24.8428 16.9786 24.799 16.8068 24.6273C16.6968 24.5172 16.6864 24.4103 16.6873 23.3972C16.6879 22.624 16.7171 22.1645 16.7836 21.8813C17.0676 20.6729 18.0243 19.5689 19.2064 19.0858C19.7808 18.851 20.3568 18.7677 21.4492 18.7614C22.4008 18.756 22.4356 18.7603 22.6057 18.9069Z" fill="white"/>
</svg>
