<svg width="30" height="30" viewBox="0 0 30 30" fill="none" xmlns="http://www.w3.org/2000/svg">
<path fill-rule="evenodd" clip-rule="evenodd" d="M10.9712 0.11924C10.8661 0.183282 10.7279 0.321562 10.6638 0.426619C10.5517 0.610367 10.5473 0.726967 10.5473 3.51793C10.5473 6.30889 10.5517 6.42549 10.6638 6.60924C11.0089 7.17519 11.8428 7.17519 12.1878 6.60924C12.2999 6.42549 12.3043 6.30889 12.3043 3.51793C12.3043 0.726967 12.2999 0.610367 12.1878 0.426619C11.9393 0.0190462 11.371 -0.124565 10.9712 0.11924ZM3.71001 3.11317C3.45882 3.18664 3.18162 3.47486 3.1089 3.73824C2.97572 4.22046 2.99939 4.25134 5.17513 6.43346C7.36228 8.627 7.45574 8.70001 7.90427 8.56566C8.22817 8.46857 8.41426 8.29959 8.52958 7.99771C8.72651 7.48198 8.72147 7.47512 6.51362 5.25691C5.42877 4.16696 4.47523 3.24072 4.39467 3.19854C4.1757 3.08393 3.91918 3.05194 3.71001 3.11317ZM18.6041 3.1369C18.4234 3.20176 17.9102 3.68269 16.3398 5.25896C14.4619 7.14384 14.3062 7.31563 14.2693 7.54227C14.1905 8.0259 14.5352 8.4964 15.038 8.59144C15.4247 8.66456 15.633 8.49417 17.7052 6.4102C19.3839 4.72184 19.6873 4.39073 19.7405 4.18852C19.9199 3.50668 19.2642 2.89989 18.6041 3.1369ZM0.424462 10.666C-0.141487 11.011 -0.141487 11.8449 0.424462 12.19C0.60821 12.3021 0.72481 12.3065 3.51577 12.3065C6.30673 12.3065 6.42333 12.3021 6.60708 12.19C7.17303 11.8449 7.17303 11.011 6.60708 10.666C6.42333 10.5539 6.30673 10.5495 3.51577 10.5495C0.72481 10.5495 0.60821 10.5539 0.424462 10.666ZM11.2178 10.7487C11.1196 10.7915 10.969 10.9099 10.8833 11.0118C10.5452 11.4135 10.4061 10.9151 13.1825 19.2502C14.578 23.4396 15.7682 26.9365 15.8275 27.0212C16.0336 27.3156 16.5805 27.4589 16.8935 27.3005C16.9639 27.2649 17.608 26.6521 18.325 25.9389L19.6284 24.6421L22.2507 27.2603C23.6929 28.7003 24.9472 29.9062 25.0379 29.9402C25.2759 30.0293 25.5828 30.0162 25.7987 29.9077C26.044 29.7844 29.6113 26.2419 29.8308 25.9036C30.0115 25.6251 30.0478 25.3332 29.9381 25.04C29.9041 24.9493 28.6981 23.6951 27.2581 22.2529L24.6399 19.6306L25.9367 18.3271C26.6499 17.6102 27.2627 16.966 27.2983 16.8957C27.4568 16.5827 27.3134 16.0357 27.019 15.8297C26.8272 15.6954 11.7442 10.6654 11.543 10.6686C11.4624 10.6698 11.3161 10.7059 11.2178 10.7487ZM7.4415 14.2825C7.34529 14.2997 6.58774 15.0157 5.23372 16.3693C3.47335 18.129 3.16345 18.4644 3.11089 18.6661C2.94162 19.3161 3.54407 19.9159 4.19147 19.7419C4.38605 19.6895 4.7474 19.3578 6.40804 17.707C8.49207 15.6352 8.66241 15.4269 8.58928 15.0401C8.53151 14.7344 8.33552 14.476 8.07015 14.3555C7.82429 14.2439 7.72363 14.2322 7.4415 14.2825Z" fill="white"/>
</svg>
