<svg width="31" height="31" viewBox="0 0 31 31" fill="none" xmlns="http://www.w3.org/2000/svg">
<path fill-rule="evenodd" clip-rule="evenodd" d="M5.75484 1.07139C4.60991 1.34867 3.70412 2.23794 3.39906 3.38415C3.28779 3.80242 3.28937 4.67388 3.40217 5.10708C3.7105 6.29068 4.69634 7.20632 5.92518 7.45044C6.31432 7.52773 6.31995 7.53118 6.06669 7.53769C5.38468 7.55521 4.25809 7.92226 3.50553 8.37217C3.01308 8.66662 2.2955 9.37166 1.93138 9.91889C1.25418 10.9367 0.96875 11.9912 0.96875 13.4754C0.96875 14.3188 0.977833 14.394 1.10177 14.5795C1.38702 15.0065 1.07645 14.9836 6.55592 14.9836C12.0789 14.9837 11.7441 15.0106 12.0163 14.5461C12.1491 14.3195 12.1607 14.2408 12.1596 13.5722C12.1568 11.814 11.7568 10.5721 10.8304 9.44584C9.97582 8.40686 8.68727 7.73633 7.18003 7.54618C6.97055 7.51981 6.88207 7.49485 6.98344 7.49075C7.30877 7.47763 7.9105 7.25742 8.2884 7.01313C9.74354 6.07264 10.2408 4.22567 9.4475 2.70765C9.21013 2.25341 8.54253 1.58581 8.08829 1.34844C7.40147 0.989529 6.52345 0.885285 5.75484 1.07139ZM24.5833 1.07139C23.4625 1.36578 22.6012 2.17383 22.2645 3.24692C22.216 3.40156 22.1614 3.76533 22.1431 4.05538C22.0814 5.03325 22.3939 5.87939 23.0659 6.55431C23.4707 6.96074 24.0914 7.3159 24.54 7.39776C24.8111 7.44721 24.8864 7.54191 24.6548 7.54191C24.5613 7.54191 24.2857 7.59289 24.0421 7.65517C21.8861 8.20657 20.2461 9.97316 19.8658 12.1538C19.8164 12.4373 19.7784 13.0112 19.7784 13.4746C19.7784 14.3737 19.8406 14.5857 20.1779 14.8372C20.3318 14.952 20.4387 14.9547 25.3158 14.9695C30.8835 14.9864 30.5483 15.0104 30.8425 14.5735C30.9783 14.3719 30.9802 14.3494 30.9554 13.2258C30.9326 12.194 30.9148 12.0324 30.7715 11.5594C30.1376 9.46565 28.4285 7.93503 26.3219 7.57443L25.9018 7.50253L26.2534 7.39981C27.3553 7.07793 28.2164 6.21738 28.5445 5.11013C28.6982 4.59143 28.6839 3.80717 28.5109 3.26925C28.1678 2.20231 27.2687 1.34914 26.1917 1.06858C25.7659 0.957711 25.0113 0.959 24.5833 1.07139ZM14.8269 5.7285C14.0225 5.81154 13.1415 6.00063 12.3829 6.25312C11.635 6.5021 10.6775 6.93461 10.7068 7.01026C10.7169 7.03633 10.9241 7.21722 11.1674 7.41217C11.4106 7.60712 11.7211 7.88763 11.8574 8.03553L12.1053 8.30443L12.3235 8.19362C13.3704 7.6618 15.5561 7.36096 17.0812 7.53868C17.8302 7.62599 18.8509 7.87796 19.4143 8.11469L19.8334 8.29078L20.2612 7.86976C20.4966 7.63824 20.8138 7.36301 20.9662 7.25812C21.1186 7.15329 21.2433 7.04313 21.2433 7.01336C21.2433 6.87624 19.6882 6.24773 18.7928 6.02307C17.6585 5.73847 15.9562 5.61201 14.8269 5.7285ZM4.7373 17.4888C4.85408 19.8844 5.72847 22.143 7.28703 24.0748C7.68649 24.5699 8.65738 25.5145 9.06756 25.8071L9.33107 25.995L9.55937 25.5757C9.68488 25.3451 9.89812 25.0055 10.0332 24.8209L10.2789 24.4854L9.75901 24.0408C8.51868 22.9799 7.5049 21.4489 6.98244 19.8473C6.73177 19.0788 6.53547 17.9434 6.53547 17.2617V16.7416H5.61819H4.70085L4.7373 17.4888ZM25.3891 17.4888C25.3385 18.6885 24.9803 20.0503 24.422 21.1657C23.9051 22.1983 23.0038 23.3496 22.1353 24.0868L21.6624 24.4882L21.907 24.8223C22.0415 25.0061 22.2543 25.3451 22.3798 25.5757L22.6081 25.995L22.8762 25.8071C23.329 25.4895 24.5467 24.2434 24.9781 23.6561C26.3901 21.7336 27.2202 19.3262 27.2202 17.1541V16.7416H26.3204H25.4205L25.3891 17.4888ZM15.1844 17.0694C14.6052 17.2096 14.1024 17.492 13.6697 17.9203C12.3929 19.1837 12.3866 21.3055 13.6558 22.572C14.0809 22.9962 14.4953 23.2296 15.1176 23.3954L15.5842 23.5196L15.2051 23.555C14.1261 23.6558 12.8829 24.2759 12.0121 25.1477C10.8332 26.3281 10.288 27.8396 10.3532 29.7468C10.3775 30.455 10.4344 30.5916 10.8125 30.8489L11.0062 30.9807H15.9696H20.933L21.1267 30.8489C21.5495 30.5611 21.5664 30.5024 21.5583 29.3499C21.5518 28.437 21.533 28.2461 21.3987 27.7361C20.9762 26.1309 19.9166 24.813 18.46 24.0809C17.9944 23.847 17.2082 23.6026 16.775 23.5574L16.4261 23.5209L16.8603 23.3957C18.2015 23.0088 19.1457 21.8297 19.2325 20.4333C19.3683 18.2493 17.3251 16.5515 15.1844 17.0694Z" fill="white"/>
</svg>
