<svg width="120" height="120" viewBox="0 0 120 120" fill="none" xmlns="http://www.w3.org/2000/svg">
<path fill-rule="evenodd" clip-rule="evenodd" d="M51.125 0.499938C24.8258 4.4952 4.354 25.0474 0.48075 51.343C0.2175 53.1294 0.00174979 55.1249 0.00124979 55.7778L0 56.9645H20.1203H40.2405L40.392 56.2774C40.845 54.2245 41.365 52.7879 42.4165 50.6832C43.3985 48.7184 43.9675 47.9626 45.98 45.9514C47.9925 43.9401 48.7487 43.3715 50.7147 42.3901C52.8207 41.3392 54.2583 40.8196 56.3125 40.3669L57 40.2155V20.1077V0L55.5625 0.0222363C54.772 0.0342289 52.775 0.249345 51.125 0.499938ZM63 20.1077V40.2155L63.6875 40.3661C67.4037 41.1811 70.577 42.7584 73.3132 45.1509L74.2515 45.9714H80.1257H86V45.3922C86 44.1328 84.6608 40.4181 83.574 38.6634C83.0185 37.7662 82.9357 37.7265 81.6312 37.7265C78.6977 37.7265 76.126 36.0505 73.468 32.4066C71.3177 29.4591 69.9595 27.9458 68.8095 27.217C68.2125 26.8388 67.8158 26.4723 67.928 26.4031C68.456 26.077 71.5033 25.7095 73.7445 25.7015C79.367 25.6815 82.6722 27.7719 84.246 32.3433C84.5275 33.1611 84.9762 34.0623 85.243 34.3464C85.51 34.6302 86.2848 35.7877 86.9648 36.9185L88.2012 38.9745L88.6885 38.1492C88.9875 37.6431 89.2272 36.6527 89.3085 35.5888C89.3815 34.6347 89.6908 33.1983 89.996 32.3973C91.3733 28.7821 95.8655 26.2669 101.75 25.8164L103.875 25.6535L102.948 26.6819C101.848 27.9029 101.355 28.8295 100 32.2299C98.6123 35.711 98.1357 36.5905 96.9197 37.9139C95.8515 39.0767 93.3408 40.4743 92.3197 40.4745C91.8512 40.4748 91.6848 40.7384 91.2545 42.1612C90.974 43.0889 90.7178 44.2974 90.6848 44.8471L90.625 45.8464L96.833 45.9714C102.674 46.0888 103.063 46.1258 103.41 46.596C103.613 46.8708 105.137 49.316 106.797 52.0301L109.816 56.9645H114.908H120V55.8487C120 51.5929 118.091 43.2483 115.825 37.6016C109.312 21.3674 95.7355 8.53119 79.2353 3.00663C74.5498 1.43785 67.3723 0.00424714 64.1875 0.00124901L63 0V20.1077ZM29.4287 21.3887C30.0868 21.6098 31.1345 22.1539 31.7575 22.5979C32.581 23.1851 33.0245 23.353 33.3825 23.2133C34.105 22.931 36.7332 22.9492 37.7943 23.2438C40.1605 23.9004 42.449 26.2342 43.1895 28.7451C43.5187 29.8614 43.7533 30.2404 44.1808 30.3478C45.0148 30.557 46.4615 31.9244 47.0325 33.0432C47.9552 34.8505 47.5597 37.6878 46.1755 39.1928C45.8727 39.5219 45.0625 40.0565 44.375 40.3806L43.125 40.9695L31.125 40.9707C23.363 40.9712 18.7847 40.8773 18.1612 40.7044C16.8685 40.3456 15.1245 38.6936 14.606 37.3365C13.745 35.0839 14.806 31.9419 16.7892 30.8708C17.6385 30.4121 17.6943 30.3026 17.8325 28.8238C18.1222 25.724 20.459 22.6137 23.3255 21.5123C24.9545 20.8862 27.7637 20.8295 29.4287 21.3887ZM58.5435 44.5507C58.0642 45.0609 58 45.4095 58 47.5054C58 49.6663 58.0525 49.9309 58.5785 50.4251C59.3715 51.1694 60.7392 51.1529 61.4565 50.3901C61.9357 49.8799 62 49.5314 62 47.4355C62 45.2745 61.9475 45.01 61.4215 44.5158C60.6285 43.7715 59.2607 43.788 58.5435 44.5507ZM48.659 48.6287C47.5275 49.7598 47.7393 50.544 49.707 52.5103C51.6618 54.4641 52.5325 54.7062 53.6362 53.6029C54.7402 52.4998 54.498 51.6296 52.543 49.6761C50.5755 47.7095 49.7907 47.4979 48.659 48.6287ZM67.457 49.6761C65.502 51.6296 65.2598 52.4998 66.3637 53.6029C67.4675 54.7062 68.3382 54.4641 70.293 52.5103C72.2607 50.544 72.4725 49.7598 71.341 48.6287C70.2093 47.4979 69.4245 47.7095 67.457 49.6761ZM77.25 49.8512C77.25 49.9237 77.5952 50.6664 78.017 51.5017C78.439 52.3369 79.0018 53.8704 79.2675 54.9095C79.5335 55.9489 79.7895 56.8373 79.8363 56.8841C79.883 56.9308 85.6195 56.94 92.584 56.9043L105.247 56.8396L103.085 53.2793L100.922 49.719H89.086C82.5762 49.719 77.25 49.7785 77.25 49.8512ZM57.875 55.381C54.0428 57.4 54.0018 62.5363 57.8025 64.4841C59.6205 65.416 62.2847 64.9328 63.6582 63.4222C65.9648 60.8856 65.2552 57.0082 62.1975 55.4412C61.0585 54.8573 58.925 54.8276 57.875 55.381ZM44.5435 58.542C43.7987 59.3345 43.8153 60.7014 44.5785 61.4182C45.089 61.8972 45.4378 61.9614 47.535 61.9614C49.6973 61.9614 49.962 61.9089 50.4565 61.3833C51.2013 60.5908 51.1847 59.2239 50.4215 58.5071C49.911 58.0281 49.5622 57.9639 47.465 57.9639C45.3027 57.9639 45.038 58.0164 44.5435 58.542ZM69.5435 58.542C68.7988 59.3345 68.8152 60.7014 69.5785 61.4182C70.089 61.8972 70.4378 61.9614 72.535 61.9614C74.6973 61.9614 74.962 61.9089 75.4565 61.3833C76.2012 60.5908 76.1848 59.2239 75.4215 58.5071C74.911 58.0281 74.5622 57.9639 72.465 57.9639C70.3027 57.9639 70.038 58.0164 69.5435 58.542ZM0.00124979 64.1475C0.00174979 64.8004 0.2175 66.7959 0.48075 68.5823C4.04775 92.7987 21.6605 112.255 45.5 118.313C48.01 118.951 52.394 119.672 54.8125 119.844L57 120V99.855V79.7098L56.3125 79.5592C48.048 77.7471 42.2045 71.9072 40.3913 63.6479L40.2405 62.9608H20.1203H0L0.00124979 64.1475ZM79.6087 63.6479C77.8 71.8862 71.931 77.7516 63.6875 79.5592L63 79.7098V99.8176V119.925L64.1875 119.924C64.8408 119.924 66.8375 119.708 68.625 119.445C95.243 115.529 115.89 94.699 119.607 68.0116C119.823 66.4608 120 64.6902 120 64.0766V62.9608H99.8798H79.7595L79.6087 63.6479ZM49.707 67.415C47.7393 69.3813 47.5275 70.1655 48.659 71.2966C49.7907 72.4274 50.5755 72.2158 52.543 70.2492C54.498 68.2957 54.7402 67.4255 53.6362 66.3224C52.5325 65.2191 51.6618 65.4612 49.707 67.415ZM66.3637 66.3224C65.2598 67.4255 65.502 68.2957 67.457 70.2492C69.4245 72.2158 70.2093 72.4274 71.341 71.2966C72.4725 70.1655 72.2607 69.3813 70.293 67.415C68.3382 65.4612 67.4675 65.2191 66.3637 66.3224ZM58.5435 69.5352C58.0642 70.0454 58 70.3939 58 72.4898C58 74.6507 58.0525 74.9153 58.5785 75.4095C59.3715 76.1538 60.7392 76.1373 61.4565 75.3745C61.9357 74.8644 62 74.5158 62 72.4199C62 70.259 61.9475 69.9944 61.4215 69.5002C60.6285 68.7559 59.2607 68.7724 58.5435 69.5352ZM20.8095 70.968C21.3235 71.1107 22.439 71.7848 23.288 72.4659C25.3312 74.1046 25.9775 74.1136 27.9217 72.5311C29.5757 71.1847 30.6567 70.7319 32.25 70.7182C33.9735 70.7037 34.998 71.093 36.5 72.3332C37.2562 72.9578 38.1562 73.5307 38.5 73.6066C39.8568 73.9062 40.47 74.2777 40.759 74.9748C41.4185 76.5661 40.0788 77.8365 38.0677 77.5267C36.8175 77.3338 35.8527 76.8286 34.5457 75.6824C32.8435 74.1895 31.4945 74.1905 30.1408 75.6853C28.1505 77.8832 24.3773 78.2033 21.997 76.3759C19.539 74.4893 19.3975 74.4129 18.6365 74.5643C18.2302 74.6452 17.3865 75.1422 16.7615 75.6686C15.1675 77.0108 14.1815 77.4637 12.7215 77.5242C11.6133 77.5702 11.3828 77.4902 10.8535 76.8756C10.5215 76.4901 10.25 75.9474 10.25 75.6696C10.25 74.9056 11.582 73.7041 12.429 73.7041C12.9238 73.7041 13.5938 73.3263 14.5868 72.4871C15.379 71.8178 16.3865 71.1547 16.826 71.0135C17.8953 70.6702 19.6632 70.65 20.8095 70.968ZM98.983 83.1357C101.486 88.4606 103.554 93.0983 103.579 93.4418L103.625 94.0664H86.875C70.315 94.0664 70.1243 94.0607 70.055 93.5667C69.9593 92.8814 80.5092 74.5785 81 74.5785C81.3568 74.5785 83.9693 79.2079 83.9905 79.8775C83.9958 80.0436 83.1937 81.3583 82.2083 82.7989C80.1558 85.7996 79.963 86.6348 81.0973 87.6099C81.925 88.3215 82.976 88.3624 83.6765 87.7101C83.963 87.4435 86.3185 84.1271 88.9112 80.3402C91.799 76.1221 93.7812 73.455 94.0283 73.4547C94.3145 73.4545 95.7555 76.2702 98.983 83.1357ZM25.8095 81.9612C26.3235 82.1039 27.439 82.7779 28.288 83.459C30.3312 85.0977 30.9775 85.1067 32.9217 83.5242C34.5757 82.1778 35.6567 81.7251 37.25 81.7113C38.9735 81.6969 39.998 82.0861 41.5 83.3263C42.2562 83.951 43.1562 84.5238 43.5 84.5998C44.8568 84.8994 45.47 85.2709 45.759 85.9679C46.4185 87.5592 45.0788 88.8297 43.0677 88.5199C41.8175 88.327 40.8527 87.8218 39.5457 86.6755C37.8435 85.1827 36.4945 85.1837 35.1408 86.6785C33.1505 88.8764 29.3773 89.1964 26.997 87.3691C24.539 85.4825 24.3975 85.406 23.6365 85.5574C23.2302 85.6384 22.3865 86.1353 21.7615 86.6618C20.1675 88.0039 19.1815 88.4569 17.7215 88.5174C16.6133 88.5633 16.3827 88.4834 15.8535 87.8688C15.5215 87.4833 15.25 86.9406 15.25 86.6628C15.25 85.8987 16.582 84.6972 17.429 84.6972C17.9237 84.6972 18.5938 84.3195 19.5868 83.4802C20.379 82.8109 21.3865 82.1478 21.826 82.0067C22.8953 81.6634 24.6632 81.6431 25.8095 81.9612ZM30.8095 92.9543C31.3235 93.097 32.439 93.7711 33.288 94.4522C35.3312 96.0909 35.9775 96.0999 37.9217 94.5174C39.5757 93.171 40.6567 92.7182 42.25 92.7045C43.9735 92.69 44.998 93.0793 46.5 94.3195C47.2562 94.9441 48.1562 95.5147 48.5 95.588C50.5993 96.0344 51.353 96.9838 50.7547 98.4274C50.3445 99.4171 49.3215 99.7516 47.7407 99.4128C46.5557 99.1587 45.9583 98.8174 44.18 97.3788C43.7142 97.0021 43.0052 96.6286 42.604 96.5489C41.8543 96.3997 41.7042 96.4809 39.253 98.3622C37.0077 100.086 33.9793 99.9695 31.6455 98.0697C29.2243 96.0989 28.7057 96.0567 26.7647 97.6714C25.1645 99.0023 24.1803 99.4503 22.7215 99.5105C21.6133 99.5565 21.3827 99.4765 20.8535 98.8619C20.5215 98.4764 20.25 97.9337 20.25 97.6559C20.25 96.8829 21.582 95.6904 22.4455 95.6904C22.9462 95.6904 23.5417 95.3718 24.319 94.688C26.3895 92.8669 28.481 92.308 30.8095 92.9543Z" fill="white"/>
</svg>
