<svg width="424" height="233" viewBox="0 0 424 233" fill="none" xmlns="http://www.w3.org/2000/svg" xmlns:xlink="http://www.w3.org/1999/xlink">
<mask id="mask0_153_6737" style="mask-type:alpha" maskUnits="userSpaceOnUse" x="0" y="0" width="424" height="233">
<path fill-rule="evenodd" clip-rule="evenodd" d="M0 223V51C0 45.4772 4.47715 41 10 41H87C92.5228 41 97 36.5228 97 31V10C97 4.47715 101.477 0 107 0H414C419.523 0 424 4.47715 424 10V182C424 187.523 419.523 192 414 192H393C387.477 192 383 196.477 383 202V223C383 228.523 378.523 233 373 233H10C4.47715 233 0 228.523 0 223Z" fill="#D9D9D9"/>
<path fill-rule="evenodd" clip-rule="evenodd" d="M0 223V51C0 45.4772 4.47715 41 10 41H87C92.5228 41 97 36.5228 97 31V10C97 4.47715 101.477 0 107 0H414C419.523 0 424 4.47715 424 10V182C424 187.523 419.523 192 414 192H393C387.477 192 383 196.477 383 202V223C383 228.523 378.523 233 373 233H10C4.47715 233 0 228.523 0 223Z" />
</mask>
<g mask="url(#mask0_153_6737)">
<rect width="424" height="233" fill="#D9D9D9"/>
<rect width="424" height="233" fill="url(#pattern1_153_6737)"/>
</g>
</svg>
