<svg width="135" height="48" viewBox="0 0 135 48" fill="none" xmlns="http://www.w3.org/2000/svg">
<g clip-path="url(#clip0_17712_2191)">
<path d="M129.946 28.9233H134.511V39.1474H132.341V35.7121H131.113L128.513 39.1474H125.914L128.677 35.5076C127.967 35.2759 127.394 34.867 126.957 34.2807C126.535 33.6945 126.323 33.0402 126.323 32.3177C126.323 31.3771 126.657 30.5796 127.326 29.9252C127.994 29.2573 128.868 28.9233 129.946 28.9233ZM130.069 33.8104H132.341V30.9272H130.069C129.605 30.9272 129.223 31.0635 128.923 31.3362C128.636 31.5952 128.492 31.9428 128.492 32.379C128.492 32.8153 128.636 33.1629 128.923 33.4219C129.223 33.6809 129.605 33.8104 130.069 33.8104Z" fill="white"/>
<path d="M124.022 39.1474H121.811V28.9233H124.022V39.1474Z" fill="white"/>
<path d="M124.05 27.5969H121.737V25.2869H124.05V27.5969Z" fill="#FFB200"/>
<path d="M113.456 28.9233H120.313V31.05H115.666V39.1474H113.456V28.9233Z" fill="white"/>
<path d="M106.355 28.6577C107.747 28.6577 108.948 29.1825 109.958 30.2322C110.954 31.2682 111.452 32.536 111.452 34.0356C111.452 35.5488 110.954 36.8234 109.958 37.8594C108.962 38.8954 107.76 39.4134 106.355 39.4134C104.813 39.4134 103.619 38.841 102.772 37.6958V43.2373H100.562V28.9235H102.772V30.3958C103.605 29.2371 104.799 28.6577 106.355 28.6577ZM103.694 36.3872C104.308 37.0006 105.079 37.3073 106.007 37.3073C106.935 37.3073 107.706 37.0006 108.32 36.3872C108.934 35.76 109.241 34.9762 109.241 34.0356C109.241 33.095 108.934 32.3179 108.32 31.7045C107.706 31.0774 106.935 30.7638 106.007 30.7638C105.079 30.7638 104.308 31.0774 103.694 31.7045C103.08 32.3179 102.772 33.095 102.772 34.0356C102.772 34.9626 103.08 35.7464 103.694 36.3872Z" fill="white"/>
<path d="M98.5345 34.9762H90.3873C90.5512 35.7396 90.9196 36.3326 91.4932 36.7552C92.0797 37.1778 92.8028 37.3891 93.6623 37.3891C94.8224 37.3891 95.7026 36.9665 96.3036 36.1213L98.125 37.1846C97.1289 38.6705 95.6347 39.4134 93.6425 39.4134C91.9912 39.4134 90.6466 38.9091 89.6093 37.9003C88.5865 36.8779 88.0747 35.5897 88.0747 34.0356C88.0747 32.5224 88.5796 31.2478 89.5895 30.2118C90.5856 29.1757 91.8822 28.6577 93.4785 28.6577C94.9658 28.6577 96.1938 29.1825 97.1632 30.2322C98.1318 31.2819 98.6161 32.5565 98.6161 34.056C98.6161 34.3286 98.5895 34.6354 98.5345 34.9762ZM90.3667 33.1768H96.3852C96.235 32.3725 95.894 31.7522 95.3617 31.316C94.843 30.8797 94.2084 30.6616 93.4579 30.6616C92.6395 30.6616 91.9569 30.8866 91.4108 31.3364C90.8655 31.7863 90.5169 32.3997 90.3667 33.1768Z" fill="white"/>
<path d="M83.8716 32.9925V28.9233H86.0827V39.1474H83.8716V35.0782H79.184V39.1474H76.9736V28.9233H79.184V32.9925H83.8716Z" fill="white"/>
<path d="M68.6162 33.0332V36.8979H74.9619V39.1472H66.2622V24.8335H74.8596V27.0828H68.6162V30.8043H74.3479V33.0332H68.6162Z" fill="white"/>
<path d="M59.6037 39.1472H57.0654L56.0624 36.264H49.9623L48.9594 39.1472H46.4006L51.6 24.8335H54.4248L59.6037 39.1472ZM53.0124 27.594L50.7402 34.0556H55.2845L53.0124 27.594Z" fill="white"/>
<path d="M43.6712 31.7245C44.2989 32.0517 44.7901 32.5084 45.1449 33.0945C45.4998 33.6671 45.6772 34.3214 45.6772 35.0576C45.6772 36.2299 45.261 37.2046 44.4285 37.9817C43.596 38.7587 42.5794 39.1472 41.3785 39.1472H35.2375V24.8335H40.9281C42.1018 24.8335 43.0911 25.2151 43.8963 25.9786C44.7151 26.742 45.1245 27.6826 45.1245 28.8004C45.1245 30.0273 44.64 31.002 43.6712 31.7245ZM40.9281 27.0419H37.5916V30.8043H40.9281C41.4467 30.8043 41.8834 30.6271 42.2383 30.2727C42.5931 29.9047 42.7705 29.4548 42.7705 28.9231C42.7705 28.3914 42.5931 27.9484 42.2383 27.594C41.8834 27.2259 41.4467 27.0419 40.9281 27.0419ZM37.5916 36.9388H41.3785C41.9244 36.9388 42.3815 36.7479 42.75 36.3663C43.1321 35.9709 43.3231 35.4938 43.3231 34.9349C43.3231 34.376 43.1321 33.9056 42.75 33.5239C42.3815 33.1287 41.9244 32.9309 41.3785 32.9309H37.5916V36.9388Z" fill="white"/>
<path d="M13.7273 30.7021V24.8335H16.0813V39.1472H13.7273V32.9514H7.58633V39.1472H5.2323V24.8335H7.58633V30.7021H13.7273Z" fill="white"/>
<path d="M94.548 43.1194H96.1017V46.9987H95.5914V45.5135H94.8203L93.8158 46.9987H93.2339L94.2651 45.4802C93.9989 45.4211 93.7792 45.2808 93.6053 45.059C93.4314 44.8411 93.3445 44.5954 93.3445 44.322C93.3445 43.9895 93.4612 43.7069 93.6938 43.4741C93.931 43.2376 94.2155 43.1194 94.548 43.1194ZM94.548 45.048H95.5914V43.6016H94.548C94.3635 43.6016 94.201 43.6718 94.0599 43.8122C93.9234 43.9489 93.8547 44.1188 93.8547 44.322C93.8547 44.5252 93.9234 44.697 94.0599 44.8374C94.201 44.9778 94.3635 45.048 94.548 45.048Z" fill="white"/>
<path d="M91.1967 46.9987V43.1194H91.7117V46.9987H91.1967Z" fill="white"/>
<path d="M89.2412 43.1194V46.511H89.6576V47.7413H89.1413V46.9987H86.423V43.1194H86.9393V46.511H88.7256V43.1194H89.2412Z" fill="white"/>
<path d="M85.0218 46.9987H84.4726L84.1569 46.1287H82.4087L82.093 46.9987H81.5438L82.9914 43.1194H83.5742L85.0218 46.9987ZM83.2798 43.7345L82.5864 45.6465H83.9792L83.2798 43.7345Z" fill="white"/>
<path d="M79.7269 44.9928C80.1487 45.1739 80.3592 45.4897 80.3592 45.9405C80.3592 46.273 80.2333 46.5445 79.9816 46.7551C79.7337 46.9657 79.405 47.071 78.9947 47.071C78.6316 47.071 78.3342 46.9915 78.1015 46.8327C77.872 46.6738 77.7095 46.4558 77.6134 46.1787L78.0512 45.9294C78.1656 46.3653 78.4806 46.5833 78.9947 46.5833C79.2609 46.5833 79.4676 46.5242 79.6155 46.406C79.7673 46.2878 79.8436 46.127 79.8436 45.9238C79.8436 45.7206 79.7726 45.5599 79.6323 45.4417C79.492 45.3198 79.2998 45.2588 79.0557 45.2588H78.6004V44.7877H78.9276C79.1609 44.7877 79.3478 44.7305 79.4881 44.616C79.6323 44.4977 79.7048 44.3444 79.7048 44.156C79.7048 43.9675 79.6376 43.8161 79.5049 43.7015C79.3715 43.587 79.1907 43.5297 78.9611 43.5297C78.5325 43.5297 78.2457 43.72 78.1015 44.1006L77.6683 43.8512C77.9017 43.3155 78.3326 43.0476 78.9611 43.0476C79.3348 43.0476 79.6361 43.1511 79.8657 43.3579C80.0983 43.5611 80.215 43.8235 80.215 44.1449C80.215 44.5181 80.0526 44.8007 79.7269 44.9928Z" fill="white"/>
<path d="M75.5648 46.9987V43.1194H76.0802V46.9987H75.5648Z" fill="white"/>
<path d="M73.28 44.7653V43.1194H73.7903V46.9987H73.28V45.253H71.3937V46.9987H70.8778V43.1194H71.3937V44.7653H73.28Z" fill="white"/>
<path d="M69.4767 46.9987H68.9275L68.6113 46.1287H66.8637L66.5475 46.9987H65.9983L67.4462 43.1194H68.0288L69.4767 46.9987ZM67.7348 43.7345L67.0412 45.6465H68.4337L67.7348 43.7345Z" fill="white"/>
<path d="M63.1786 43.1194H65.3588V43.6071H63.6945V46.9987H63.1786V43.1194Z" fill="white"/>
<path d="M58.9633 43.1194H60.3724C60.7274 43.1194 61.0252 43.2395 61.2656 43.4796C61.506 43.7198 61.6262 44.0154 61.6262 44.3663C61.6262 44.7173 61.506 45.0129 61.2656 45.253C61.0252 45.4932 60.7274 45.6132 60.3724 45.6132H59.4792V46.9987H58.9633V43.1194ZM59.4792 45.1311H60.3724C60.5906 45.1311 60.7681 45.059 60.905 44.915C61.0455 44.7635 61.1158 44.5806 61.1158 44.3663C61.1158 44.1447 61.0455 43.9617 60.905 43.8177C60.7644 43.6736 60.5869 43.6016 60.3724 43.6016H59.4792V45.1311Z" fill="white"/>
<path d="M53.3777 45.0593C53.3777 44.4977 53.5719 44.023 53.9602 43.635C54.3485 43.2434 54.8238 43.0476 55.386 43.0476C55.9482 43.0476 56.4234 43.2434 56.8117 43.635C57.2038 44.023 57.3998 44.4977 57.3998 45.0593C57.3998 45.6172 57.2038 46.092 56.8117 46.4836C56.4234 46.8752 55.9482 47.071 55.386 47.071C54.8238 47.071 54.3485 46.8752 53.9602 46.4836C53.5719 46.0882 53.3777 45.6135 53.3777 45.0593ZM56.8839 45.0593C56.8839 44.6308 56.7396 44.2724 56.4512 43.9842C56.1701 43.6923 55.815 43.5463 55.386 43.5463C54.9607 43.5463 54.6037 43.6923 54.3153 43.9842C54.0305 44.276 53.8881 44.6344 53.8881 45.0593C53.8881 45.4804 54.0305 45.8388 54.3153 46.1344C54.6037 46.4226 54.9607 46.5667 55.386 46.5667C55.815 46.5667 56.1701 46.4226 56.4512 46.1344C56.7396 45.8388 56.8839 45.4804 56.8839 45.0593Z" fill="white"/>
<path d="M49.8517 46.9987H49.3025L48.9863 46.1287H47.2387L46.9225 46.9987H46.3733L47.8213 43.1194H48.4038L49.8517 46.9987ZM48.1098 43.7345L47.4163 45.6465H48.8088L48.1098 43.7345Z" fill="white"/>
<path d="M43.5022 45.0037L45.2719 46.9987H44.6395L42.9641 45.1367V46.9987H42.4481V43.1194H42.9641V44.8706L44.584 43.1194H45.2165L43.5022 45.0037Z" fill="white"/>
<path d="M38.7487 44.5049H39.6419C39.9969 44.5049 40.2947 44.625 40.535 44.8651C40.7754 45.1052 40.8956 45.4008 40.8956 45.7518C40.8956 46.1065 40.7754 46.4039 40.535 46.644C40.2984 46.8805 40.0006 46.9987 39.6419 46.9987H38.2328V43.1194H38.7487V44.5049ZM38.7487 46.5166H39.6419C39.8564 46.5166 40.0339 46.4446 40.1745 46.3004C40.315 46.1563 40.3853 45.9735 40.3853 45.7518C40.3853 45.5375 40.315 45.3565 40.1745 45.2087C40.0376 45.0609 39.8601 44.987 39.6419 44.987H38.7487V46.5166Z" fill="white"/>
<path d="M35.03 47.071C34.4382 47.071 33.9519 46.877 33.5709 46.4891C33.19 46.1049 32.9995 45.6283 32.9995 45.0593C32.9995 44.4904 33.19 44.0137 33.5709 43.6295C33.9519 43.2416 34.4382 43.0476 35.03 43.0476C35.3814 43.0476 35.7068 43.1326 36.0064 43.3025C36.3059 43.4724 36.539 43.7016 36.7054 43.9897L36.2561 44.2502C36.1451 44.0359 35.9787 43.866 35.7567 43.7403C35.5385 43.611 35.2963 43.5463 35.03 43.5463C34.5788 43.5463 34.2126 43.6904 33.9315 43.9787C33.6505 44.2632 33.5099 44.6234 33.5099 45.0593C33.5099 45.4916 33.6505 45.85 33.9315 46.1344C34.2126 46.4226 34.5788 46.5667 35.03 46.5667C35.2963 46.5667 35.5385 46.5039 35.7567 46.3783C35.9787 46.249 36.1451 46.079 36.2561 45.8684L36.7054 46.1233C36.5427 46.4115 36.3115 46.6424 36.0119 46.8161C35.7161 46.986 35.3887 47.071 35.03 47.071Z" fill="white"/>
<path d="M31.3099 43.1194V46.511H31.7259V47.7413H31.21V46.9987H28.647V47.7413H28.131V46.511H28.4694C28.7098 46.2081 28.83 45.7537 28.83 45.1477V43.1194H31.3099ZM29.052 46.511H30.7939V43.6016H29.346V45.1589C29.346 45.7425 29.248 46.1933 29.052 46.511Z" fill="white"/>
<path d="M27.0573 46.9987H26.5081L26.1918 46.1287H24.4443L24.1281 46.9987H23.5789L25.0268 43.1194H25.6093L27.0573 46.9987ZM25.3153 43.7345L24.6218 45.6465H26.0143L25.3153 43.7345Z" fill="white"/>
<path d="M21.5944 43.1194H22.1769V46.9987H21.6665V43.9673L20.3961 46.0788H20.3296L19.0591 43.9729V46.9987H18.5432V43.1194H19.1257L20.3628 45.1699L21.5944 43.1194Z" fill="white"/>
<path d="M12.9578 45.0593C12.9578 44.4977 13.152 44.023 13.5402 43.635C13.9286 43.2434 14.4039 43.0476 14.9661 43.0476C15.5282 43.0476 16.0034 43.2434 16.3918 43.635C16.7838 44.023 16.9798 44.4977 16.9798 45.0593C16.9798 45.6172 16.7838 46.092 16.3918 46.4836C16.0034 46.8752 15.5282 47.071 14.9661 47.071C14.4039 47.071 13.9286 46.8752 13.5402 46.4836C13.152 46.0882 12.9578 45.6135 12.9578 45.0593ZM16.4639 45.0593C16.4639 44.6308 16.3196 44.2724 16.0312 43.9842C15.7501 43.6923 15.395 43.5463 14.9661 43.5463C14.5407 43.5463 14.1838 43.6923 13.8953 43.9842C13.6105 44.276 13.4682 44.6344 13.4682 45.0593C13.4682 45.4804 13.6105 45.8388 13.8953 46.1344C14.1838 46.4226 14.5407 46.5667 14.9661 46.5667C15.395 46.5667 15.7501 46.4226 16.0312 46.1344C16.3196 45.8388 16.4639 45.4804 16.4639 45.0593Z" fill="white"/>
<path d="M8.97449 43.1194H10.3836C10.7386 43.1194 11.0364 43.2395 11.2768 43.4796C11.5172 43.7198 11.6374 44.0154 11.6374 44.3663C11.6374 44.7173 11.5172 45.0129 11.2768 45.253C11.0364 45.4932 10.7386 45.6132 10.3836 45.6132H9.49039V46.9987H8.97449V43.1194ZM9.49039 45.1311H10.3836C10.6018 45.1311 10.7794 45.059 10.9162 44.915C11.0567 44.7635 11.127 44.5806 11.127 44.3663C11.127 44.1447 11.0567 43.9617 10.9162 43.8177C10.7756 43.6736 10.5981 43.6016 10.3836 43.6016H9.49039V45.1311Z" fill="white"/>
<path d="M5.33875 43.1194H7.519V43.6071H5.85468V46.9987H5.33875V43.1194Z" fill="white"/>
<path d="M23.4557 24.8733C22.3076 25.2122 21.2818 25.8328 20.3784 26.7352C18.9456 28.1665 18.2291 29.9182 18.2291 31.9903C18.2291 34.0624 18.9456 35.8209 20.3784 37.266C21.825 38.6974 23.5854 39.413 25.6597 39.413C27.734 39.413 29.4876 38.6974 30.9205 37.266C32.367 35.8209 33.0903 34.0624 33.0903 31.9903C33.0903 29.9182 32.367 28.1665 30.9205 26.7352C30.0833 25.891 29.1367 25.2933 28.0807 24.9423V27.4363C28.5069 27.6658 28.9008 27.9638 29.2624 28.3301C30.245 29.298 30.7362 30.5181 30.7362 31.9903C30.7362 33.4626 30.245 34.6895 29.2624 35.671C28.2935 36.6389 27.0926 37.1228 25.6597 37.1228C24.2404 37.1228 23.0328 36.6389 22.0365 35.671C21.0676 34.6759 20.5832 33.449 20.5832 31.9903C20.5832 30.5181 21.0676 29.298 22.0365 28.3301C22.4664 27.9006 22.9396 27.5651 23.4557 27.3236V24.8733Z" fill="#FFB200"/>
<path d="M26.9244 22.9768H24.6119V28.7519H26.9244V22.9768Z" fill="#FFB200"/>
<path d="M50.7529 0.751221H47.3646V13.7839H50.7529V0.751221Z" fill="#FFA600"/>
<path fill-rule="evenodd" clip-rule="evenodd" d="M38.8381 14.6273L42.1089 14.1131L36.3557 1.52197L33.0848 2.03613L38.8381 14.6273Z" fill="#FFAA00"/>
<path fill-rule="evenodd" clip-rule="evenodd" d="M58.7706 14.6441L55.4998 14.13L61.253 1.54443L64.5238 2.05859L58.7706 14.6441Z" fill="#FF9500"/>
<path fill-rule="evenodd" clip-rule="evenodd" d="M31.0162 16.7511L33.946 15.7563L22.8365 4.46729L19.9067 5.46206L31.0162 16.7511Z" fill="#FFB300"/>
<path fill-rule="evenodd" clip-rule="evenodd" d="M66.5923 16.768L63.6626 15.7788L74.7721 4.48975L77.702 5.48452L66.5923 16.768Z" fill="#FF8800"/>
<path fill-rule="evenodd" clip-rule="evenodd" d="M24.2957 19.9814L26.6662 18.573L11.095 9.35742L8.71887 10.7658L24.2957 19.9814Z" fill="#FFCC00"/>
<path fill-rule="evenodd" clip-rule="evenodd" d="M73.1788 19.998L70.7858 18.5953L86.4915 9.37964L88.8842 10.7824L73.1788 19.998Z" fill="#FF7300"/>
<path fill-rule="evenodd" clip-rule="evenodd" d="M78.065 24.0275L76.371 22.3062L95.6104 15.7954L97.3044 17.5111L78.065 24.0275Z" fill="#FF5E00"/>
<path fill-rule="evenodd" clip-rule="evenodd" d="M14.2095 22.3733L0.304443 17.4945L1.93705 15.7732L20.5051 22.2895L20.4212 22.3733H14.2095Z" fill="#FFE100"/>
<path fill-rule="evenodd" clip-rule="evenodd" d="M92.9095 27.0845L102.409 25.57L101.542 23.6531L80.4132 27.023L80.4414 27.0845H92.9095Z" fill="#FF4D00"/>
</g>
<defs>
<clipPath id="clip0_17712_2191">
<rect width="135" height="48" fill="white"/>
</clipPath>
</defs>
</svg>
