<svg width="177" height="63" viewBox="0 0 177 63" fill="none" xmlns="http://www.w3.org/2000/svg">
<g clip-path="url(#clip0_227_3521)">
<path d="M170.374 37.9617H176.359V51.3808H173.514V46.872H171.904L168.495 51.3808H165.087L168.71 46.6036C167.779 46.2994 167.028 45.7627 166.455 44.9933C165.901 44.2239 165.623 43.3651 165.623 42.4168C165.623 41.1823 166.062 40.1356 166.939 39.2767C167.815 38.4 168.96 37.9617 170.374 37.9617ZM170.535 44.376H173.514V40.5918H170.535C169.927 40.5918 169.426 40.7707 169.032 41.1286C168.656 41.4685 168.468 41.9248 168.468 42.4973C168.468 43.0699 168.656 43.5261 169.032 43.8661C169.426 44.206 169.927 44.376 170.535 44.376Z" fill="#07336D"/>
<path d="M162.607 51.3808H159.708V37.9617H162.607V51.3808Z" fill="#07336D"/>
<path d="M162.643 36.2211H159.611V33.1892H162.643V36.2211Z" fill="#FFB200"/>
<path d="M148.753 37.9617H157.744V40.7529H151.651V51.3808H148.753V37.9617Z" fill="#07336D"/>
<path d="M139.443 37.6128C141.268 37.6128 142.843 38.3016 144.167 39.6793C145.473 41.0391 146.126 42.7031 146.126 44.6713C146.126 46.6573 145.473 48.3302 144.167 49.69C142.861 51.0498 141.286 51.7297 139.443 51.7297C137.421 51.7297 135.856 50.9783 134.746 49.4753V56.7485H131.848V37.9617H134.746V39.894C135.838 38.3732 137.403 37.6128 139.443 37.6128ZM135.954 47.7577C136.759 48.5628 137.77 48.9654 138.987 48.9654C140.204 48.9654 141.214 48.5628 142.02 47.7577C142.825 46.9346 143.227 45.9058 143.227 44.6713C143.227 43.4367 142.825 42.4168 142.02 41.6117C141.214 40.7887 140.204 40.3771 138.987 40.3771C137.77 40.3771 136.759 40.7887 135.954 41.6117C135.149 42.4168 134.746 43.4367 134.746 44.6713C134.746 45.8879 135.149 46.9167 135.954 47.7577Z" fill="#07336D"/>
<path d="M129.19 45.9058H118.508C118.723 46.9078 119.206 47.6861 119.958 48.2408C120.727 48.7954 121.675 49.0727 122.802 49.0727C124.323 49.0727 125.477 48.5181 126.265 47.4088L128.653 48.8044C127.347 50.7546 125.388 51.7297 122.776 51.7297C120.611 51.7297 118.848 51.0677 117.488 49.7437C116.147 48.4018 115.476 46.711 115.476 44.6713C115.476 42.6852 116.138 41.0123 117.462 39.6525C118.768 38.2927 120.468 37.6128 122.561 37.6128C124.511 37.6128 126.121 38.3016 127.392 39.6793C128.662 41.057 129.297 42.73 129.297 44.6981C129.297 45.0559 129.262 45.4585 129.19 45.9058ZM118.481 43.5441H126.372C126.175 42.4884 125.728 41.6743 125.03 41.1018C124.35 40.5292 123.518 40.2429 122.534 40.2429C121.461 40.2429 120.566 40.5382 119.85 41.1286C119.135 41.7191 118.678 42.5242 118.481 43.5441Z" fill="#07336D"/>
<path d="M109.965 43.3025V37.9617H112.864V51.3808H109.965V46.04H103.819V51.3808H100.921V37.9617H103.819V43.3025H109.965Z" fill="#07336D"/>
<path d="M89.9635 43.3561V48.4285H98.2834V51.3808H86.8771V32.594H98.1492V35.5462H89.9635V40.4307H97.4783V43.3561H89.9635Z" fill="#07336D"/>
<path d="M78.1474 51.3808H74.8194L73.5043 47.5966H65.5065L64.1915 51.3808H60.8367L67.6536 32.594H71.3573L78.1474 51.3808ZM69.5054 36.2171L66.5264 44.698H72.4845L69.5054 36.2171Z" fill="#07336D"/>
<path d="M57.2578 41.6385C58.0808 42.0679 58.7249 42.6673 59.1901 43.4366C59.6553 44.1881 59.8879 45.0469 59.8879 46.0131C59.8879 47.5518 59.3422 48.8311 58.2508 49.851C57.1593 50.8708 55.8264 51.3808 54.2519 51.3808H46.2004V32.594H53.6614C55.2002 32.594 56.4973 33.0949 57.553 34.0969C58.6265 35.0989 59.1633 36.3334 59.1633 37.8006C59.1633 39.4109 58.5281 40.6902 57.2578 41.6385ZM53.6614 35.4925H49.2868V40.4307H53.6614C54.3413 40.4307 54.9139 40.1981 55.3791 39.7329C55.8443 39.2499 56.0769 38.6594 56.0769 37.9616C56.0769 37.2638 55.8443 36.6823 55.3791 36.2171C54.9139 35.734 54.3413 35.4925 53.6614 35.4925ZM49.2868 48.4822H54.2519C54.9676 48.4822 55.5669 48.2317 56.05 47.7308C56.551 47.2119 56.8015 46.5857 56.8015 45.8521C56.8015 45.1185 56.551 44.5012 56.05 44.0002C55.5669 43.4814 54.9676 43.2219 54.2519 43.2219H49.2868V48.4822Z" fill="#07336D"/>
<path d="M17.9981 40.2965V32.594H21.0845V51.3808H17.9981V43.2488H9.94663V51.3808H6.86023V32.594H9.94663V40.2965H17.9981Z" fill="#07336D"/>
<path d="M123.963 56.5945H126V61.6861H125.331V59.7368H124.32L123.003 61.6861H122.24L123.592 59.6931C123.243 59.6155 122.955 59.4313 122.727 59.1403C122.499 58.8542 122.385 58.5318 122.385 58.1729C122.385 57.7365 122.538 57.3656 122.843 57.0601C123.154 56.7497 123.527 56.5945 123.963 56.5945ZM123.963 59.1258H125.331V57.2274H123.963C123.721 57.2274 123.508 57.3195 123.323 57.5038C123.144 57.6832 123.054 57.9062 123.054 58.1729C123.054 58.4396 123.144 58.6651 123.323 58.8494C123.508 59.0337 123.721 59.1258 123.963 59.1258Z" fill="#07336D"/>
<path d="M119.569 61.6861V56.5945H120.245V61.6861H119.569Z" fill="#07336D"/>
<path d="M117.005 56.5945V61.046H117.551V62.6608H116.874V61.6861H113.31V56.5945H113.987V61.046H116.329V56.5945H117.005Z" fill="#07336D"/>
<path d="M111.473 61.6861H110.753L110.339 60.5442H108.047L107.633 61.6861H106.913L108.811 56.5945H109.575L111.473 61.6861ZM109.189 57.4019L108.28 59.9113H110.106L109.189 57.4019Z" fill="#07336D"/>
<path d="M104.531 59.0531C105.084 59.2907 105.36 59.7053 105.36 60.2969C105.36 60.7333 105.195 61.0897 104.865 61.3661C104.54 61.6425 104.109 61.7807 103.571 61.7807C103.095 61.7807 102.705 61.6764 102.4 61.4679C102.099 61.2594 101.886 60.9733 101.76 60.6096L102.334 60.2823C102.484 60.8545 102.897 61.1406 103.571 61.1406C103.92 61.1406 104.191 61.063 104.385 60.9079C104.584 60.7527 104.684 60.5417 104.684 60.275C104.684 60.0083 104.591 59.7974 104.407 59.6422C104.223 59.4822 103.971 59.4022 103.651 59.4022H103.054V58.7839H103.483C103.789 58.7839 104.034 58.7088 104.218 58.5585C104.407 58.4033 104.502 58.202 104.502 57.9547C104.502 57.7074 104.414 57.5086 104.24 57.3583C104.065 57.208 103.828 57.1328 103.527 57.1328C102.965 57.1328 102.589 57.3825 102.4 57.882L101.832 57.5547C102.138 56.8516 102.703 56.5 103.527 56.5C104.017 56.5 104.412 56.6358 104.713 56.9073C105.018 57.174 105.171 57.5183 105.171 57.9402C105.171 58.43 104.958 58.8009 104.531 59.0531Z" fill="#07336D"/>
<path d="M99.0739 61.6861V56.5945H99.7503V61.6861H99.0739Z" fill="#07336D"/>
<path d="M96.0785 58.7548V56.5945H96.7476V61.6861H96.0785V59.3949H93.6054V61.6861H92.929V56.5945H93.6054V58.7548H96.0785Z" fill="#07336D"/>
<path d="M91.0919 61.6861H90.3717L89.9572 60.5442H87.666L87.2514 61.6861H86.5312L88.4297 56.5945H89.1935L91.0919 61.6861ZM88.808 57.4019L87.8987 59.9113H89.7243L88.808 57.4019Z" fill="#07336D"/>
<path d="M82.8342 56.5945H85.6927V57.2346H83.5106V61.6861H82.8342V56.5945Z" fill="#07336D"/>
<path d="M77.3073 56.5945H79.1548C79.6203 56.5945 80.0107 56.7521 80.3259 57.0673C80.6411 57.3825 80.7987 57.7705 80.7987 58.2311C80.7987 58.6918 80.6411 59.0797 80.3259 59.3949C80.0107 59.7101 79.6203 59.8677 79.1548 59.8677H77.9838V61.6861H77.3073V56.5945ZM77.9838 59.2349H79.1548C79.4409 59.2349 79.6737 59.1403 79.8531 58.9512C80.0374 58.7524 80.1295 58.5124 80.1295 58.2311C80.1295 57.9402 80.0374 57.7001 79.8531 57.511C79.6688 57.3219 79.4361 57.2274 79.1548 57.2274H77.9838V59.2349Z" fill="#07336D"/>
<path d="M69.9841 59.1403C69.9841 58.4033 70.2387 57.7802 70.7479 57.271C71.257 56.757 71.8801 56.5 72.6172 56.5C73.3543 56.5 73.9774 56.757 74.4865 57.271C75.0006 57.7802 75.2576 58.4033 75.2576 59.1403C75.2576 59.8726 75.0006 60.4957 74.4865 61.0097C73.9774 61.5237 73.3543 61.7807 72.6172 61.7807C71.8801 61.7807 71.257 61.5237 70.7479 61.0097C70.2387 60.4908 69.9841 59.8677 69.9841 59.1403ZM74.5811 59.1403C74.5811 58.5779 74.392 58.1075 74.0138 57.7293C73.6452 57.3462 73.1797 57.1546 72.6172 57.1546C72.0596 57.1546 71.5916 57.3462 71.2134 57.7293C70.84 58.1123 70.6533 58.5827 70.6533 59.1403C70.6533 59.6931 70.84 60.1635 71.2134 60.5514C71.5916 60.9297 72.0596 61.1188 72.6172 61.1188C73.1797 61.1188 73.6452 60.9297 74.0138 60.5514C74.392 60.1635 74.5811 59.6931 74.5811 59.1403Z" fill="#07336D"/>
<path d="M65.3611 61.6861H64.641L64.2264 60.5442H61.9352L61.5206 61.6861H60.8005L62.699 56.5945H63.4627L65.3611 61.6861ZM63.0772 57.4019L62.168 59.9113H63.9937L63.0772 57.4019Z" fill="#07336D"/>
<path d="M57.0364 59.0676L59.3567 61.6861H58.5275L56.3309 59.2422V61.6861H55.6544V56.5945H56.3309V58.893L58.4548 56.5945H59.284L57.0364 59.0676Z" fill="#07336D"/>
<path d="M50.804 58.413H51.9751C52.4406 58.413 52.831 58.5706 53.1461 58.8858C53.4613 59.2009 53.6189 59.5889 53.6189 60.0495C53.6189 60.5151 53.4613 60.9054 53.1461 61.2206C52.8358 61.531 52.4454 61.6861 51.9751 61.6861H50.1276V56.5945H50.804V58.413ZM50.804 61.0533H51.9751C52.2563 61.0533 52.4891 60.9588 52.6734 60.7696C52.8576 60.5805 52.9498 60.3405 52.9498 60.0495C52.9498 59.7683 52.8576 59.5307 52.6734 59.3367C52.4939 59.1428 52.2612 59.0458 51.9751 59.0458H50.804V61.0533Z" fill="#07336D"/>
<path d="M45.9283 61.7807C45.1524 61.7807 44.5148 61.5261 44.0153 61.017C43.5158 60.5127 43.2661 59.8871 43.2661 59.1403C43.2661 58.3936 43.5158 57.768 44.0153 57.2637C44.5148 56.7546 45.1524 56.5 45.9283 56.5C46.389 56.5 46.8157 56.6115 47.2085 56.8346C47.6012 57.0576 47.9067 57.3583 48.1249 57.7365L47.5358 58.0784C47.3903 57.7971 47.1721 57.5741 46.8811 57.4092C46.595 57.2395 46.2774 57.1546 45.9283 57.1546C45.3367 57.1546 44.8566 57.3437 44.4881 57.722C44.1196 58.0954 43.9353 58.5682 43.9353 59.1403C43.9353 59.7077 44.1196 60.1781 44.4881 60.5514C44.8566 60.9297 45.3367 61.1188 45.9283 61.1188C46.2774 61.1188 46.595 61.0364 46.8811 60.8715C47.1721 60.7018 47.3903 60.4787 47.5358 60.2023L48.1249 60.5369C47.9116 60.9151 47.6085 61.2182 47.2157 61.4461C46.8278 61.6692 46.3986 61.7807 45.9283 61.7807Z" fill="#07336D"/>
<path d="M41.0508 56.5945V61.046H41.5963V62.6608H40.9198V61.6861H37.5594V62.6608H36.8829V61.046H37.3266C37.6418 60.6484 37.7994 60.052 37.7994 59.2567V56.5945H41.0508ZM38.0904 61.046H40.3743V57.2274H38.4759V59.2713C38.4759 60.0374 38.3474 60.629 38.0904 61.046Z" fill="#07336D"/>
<path d="M35.4752 61.6861H34.7551L34.3405 60.5442H32.0492L31.6347 61.6861H30.9146L32.813 56.5945H33.5767L35.4752 61.6861ZM33.1913 57.4019L32.2819 59.9113H34.1077L33.1913 57.4019Z" fill="#07336D"/>
<path d="M28.3128 56.5945H29.0765V61.6861H28.4073V57.7074L26.7417 60.4787H26.6544L24.9887 57.7147V61.6861H24.3123V56.5945H25.076L26.698 59.2858L28.3128 56.5945Z" fill="#07336D"/>
<path d="M16.9891 59.1403C16.9891 58.4033 17.2437 57.7802 17.7528 57.271C18.262 56.757 18.8851 56.5 19.6222 56.5C20.3592 56.5 20.9823 56.757 21.4915 57.271C22.0055 57.7802 22.2625 58.4033 22.2625 59.1403C22.2625 59.8726 22.0055 60.4957 21.4915 61.0097C20.9823 61.5237 20.3592 61.7807 19.6222 61.7807C18.8851 61.7807 18.262 61.5237 17.7528 61.0097C17.2437 60.4908 16.9891 59.8677 16.9891 59.1403ZM21.586 59.1403C21.586 58.5779 21.3969 58.1075 21.0187 57.7293C20.6502 57.3462 20.1846 57.1546 19.6222 57.1546C19.0645 57.1546 18.5966 57.3462 18.2183 57.7293C17.8449 58.1123 17.6583 58.5827 17.6583 59.1403C17.6583 59.6931 17.8449 60.1635 18.2183 60.5514C18.5966 60.9297 19.0645 61.1188 19.6222 61.1188C20.1846 61.1188 20.6502 60.9297 21.0187 60.5514C21.3969 60.1635 21.586 59.6931 21.586 59.1403Z" fill="#07336D"/>
<path d="M11.7668 56.5945H13.6143C14.0798 56.5945 14.4702 56.7521 14.7854 57.0673C15.1006 57.3825 15.2582 57.7705 15.2582 58.2311C15.2582 58.6918 15.1006 59.0797 14.7854 59.3949C14.4702 59.7101 14.0798 59.8677 13.6143 59.8677H12.4432V61.6861H11.7668V56.5945ZM12.4432 59.2349H13.6143C13.9004 59.2349 14.1332 59.1403 14.3126 58.9512C14.4968 58.7524 14.589 58.5124 14.589 58.2311C14.589 57.9402 14.4968 57.7001 14.3126 57.511C14.1283 57.3219 13.8956 57.2274 13.6143 57.2274H12.4432V59.2349Z" fill="#07336D"/>
<path d="M7 56.5945H9.85856V57.2346H7.67645V61.6861H7V56.5945Z" fill="#07336D"/>
<path d="M30.7531 32.6462C29.2478 33.091 27.9029 33.9055 26.7185 35.0899C24.8399 36.9686 23.9005 39.2677 23.9005 41.9873C23.9005 44.7069 24.8399 47.015 26.7185 48.9116C28.6151 50.7903 30.9232 51.7296 33.6428 51.7296C36.3624 51.7296 38.6616 50.7903 40.5403 48.9116C42.4368 47.015 43.3851 44.7069 43.3851 41.9873C43.3851 39.2677 42.4368 36.9686 40.5403 35.0899C39.4427 33.9819 38.2016 33.1975 36.817 32.7368V36.0101C37.3758 36.3114 37.8923 36.7025 38.3664 37.1833C39.6546 38.4536 40.2987 40.055 40.2987 41.9873C40.2987 43.9197 39.6546 45.53 38.3664 46.8182C37.096 48.0886 35.5215 48.7237 33.6428 48.7237C31.782 48.7237 30.1986 48.0886 28.8924 46.8182C27.6221 45.5121 26.9869 43.9018 26.9869 41.9873C26.9869 40.055 27.6221 38.4536 28.8924 37.1833C29.4561 36.6196 30.0764 36.1792 30.7531 35.8622V32.6462Z" fill="#FFB200"/>
<path d="M35.301 30.1572H32.269V37.7371H35.301V30.1572Z" fill="#FFB200"/>
<path d="M66.5427 0.985596H62.1003V18.091H66.5427V0.985596Z" fill="#FFA600"/>
<path fill-rule="evenodd" clip-rule="evenodd" d="M50.9212 19.1985L55.2095 18.5237L47.6665 1.9978L43.3781 2.67263L50.9212 19.1985Z" fill="#FFAA00"/>
<path fill-rule="evenodd" clip-rule="evenodd" d="M77.0548 19.2204L72.7664 18.5456L80.3095 2.0271L84.5979 2.70193L77.0548 19.2204Z" fill="#FF9500"/>
<path fill-rule="evenodd" clip-rule="evenodd" d="M40.6658 21.9858L44.507 20.6801L29.9412 5.86328L26.1 7.16892L40.6658 21.9858Z" fill="#FFB300"/>
<path fill-rule="evenodd" clip-rule="evenodd" d="M87.3099 22.008L83.4688 20.7097L98.0345 5.89282L101.876 7.19846L87.3099 22.008Z" fill="#FF8800"/>
<path fill-rule="evenodd" clip-rule="evenodd" d="M31.8544 26.2255L34.9625 24.377L14.5469 12.2815L11.4315 14.13L31.8544 26.2255Z" fill="#FFCC00"/>
<path fill-rule="evenodd" clip-rule="evenodd" d="M95.9455 26.2474L92.808 24.4063L113.4 12.3108L116.537 14.1519L95.9455 26.2474Z" fill="#FF7300"/>
<path fill-rule="evenodd" clip-rule="evenodd" d="M102.352 31.536L100.131 29.2768L125.356 20.7314L127.577 22.9833L102.352 31.536Z" fill="#FF5E00"/>
<path fill-rule="evenodd" clip-rule="evenodd" d="M18.6302 29.3651L0.399048 22.9616L2.53957 20.7024L26.8844 29.2551L26.7744 29.3651H18.6302Z" fill="#FFE100"/>
<path fill-rule="evenodd" clip-rule="evenodd" d="M121.815 35.5484L134.27 33.5606L133.133 31.0447L105.431 35.4677L105.468 35.5484H121.815Z" fill="#FF4D00"/>
</g>
<defs>
<clipPath id="clip0_227_3521">
<rect width="177" height="63" fill="white"/>
</clipPath>
</defs>
</svg>
