<svg width="328" height="118" viewBox="0 0 328 118" fill="none" xmlns="http://www.w3.org/2000/svg">
<path d="M315.721 71.1033H326.812V96.2375H321.54V87.7924H318.556L312.239 96.2375H305.924L312.638 87.2897C310.912 86.7199 309.521 85.7147 308.459 84.2736C307.432 82.8325 306.917 81.2239 306.917 79.4477C306.917 77.1355 307.73 75.175 309.356 73.5663C310.979 71.9242 313.101 71.1033 315.721 71.1033ZM316.019 83.1174H321.54V76.0295H316.019C314.893 76.0295 313.964 76.3646 313.234 77.0349C312.537 77.6716 312.189 78.5262 312.189 79.5985C312.189 80.671 312.537 81.5255 313.234 82.1623C313.964 82.7989 314.893 83.1174 316.019 83.1174Z" fill="white"/>
<path d="M301.328 96.2375H295.956V71.1033H301.328V96.2375Z" fill="white"/>
<path d="M301.395 67.8421H295.776V62.1633H301.395V67.8421Z" fill="#FFB200"/>
<path d="M275.655 71.1033H292.316V76.3312H281.025V96.2375H275.655V71.1033Z" fill="white"/>
<path d="M258.403 70.4502C261.785 70.4502 264.703 71.7403 267.157 74.3208C269.577 76.8677 270.787 79.9844 270.787 83.6709C270.787 87.3907 269.577 90.5241 267.157 93.071C264.737 95.6179 261.818 96.8914 258.403 96.8914C254.656 96.8914 251.756 95.484 249.699 92.6688V106.292H244.328V71.1037H249.699V74.7229C251.722 71.8744 254.622 70.4502 258.403 70.4502ZM251.937 89.4518C253.429 90.9597 255.303 91.7138 257.558 91.7138C259.813 91.7138 261.685 90.9597 263.178 89.4518C264.67 87.9101 265.415 85.9831 265.415 83.6709C265.415 81.3584 264.67 79.4482 263.178 77.9402C261.685 76.3987 259.813 75.6278 257.558 75.6278C255.303 75.6278 253.429 76.3987 251.937 77.9402C250.446 79.4482 249.699 81.3584 249.699 83.6709C249.699 85.9496 250.446 87.8766 251.937 89.4518Z" fill="white"/>
<path d="M239.403 85.9831H219.608C220.006 87.8599 220.901 89.3176 222.295 90.3566C223.72 91.3954 225.476 91.9148 227.565 91.9148C230.383 91.9148 232.522 90.876 233.982 88.7983L238.407 91.4122C235.987 95.065 232.357 96.8914 227.517 96.8914C223.505 96.8914 220.238 95.6514 217.717 93.1716C215.232 90.6582 213.989 87.4913 213.989 83.6709C213.989 79.9509 215.216 76.8175 217.669 74.2706C220.089 71.7237 223.24 70.4502 227.118 70.4502C230.732 70.4502 233.715 71.7403 236.071 74.3208C238.424 76.9012 239.601 80.0348 239.601 83.7211C239.601 84.3912 239.536 85.1453 239.403 85.9831ZM219.558 81.5596H234.18C233.815 79.5823 232.987 78.0574 231.694 76.9851C230.433 75.9127 228.892 75.3764 227.068 75.3764C225.08 75.3764 223.421 75.9295 222.095 77.0353C220.77 78.1414 219.923 79.6493 219.558 81.5596Z" fill="white"/>
<path d="M203.777 81.1067V71.1033H209.149V96.2375H203.777V86.2341H192.388V96.2375H187.017V71.1033H192.388V81.1067H203.777Z" fill="white"/>
<path d="M166.712 81.2067V90.7073H182.13V96.237H160.992V61.0491H181.881V66.5786H166.712V75.7273H180.638V81.2067H166.712Z" fill="white"/>
<path d="M144.815 96.237H138.648L136.211 89.1492H121.39L118.953 96.237H112.736L125.369 61.0491H132.232L144.815 96.237ZM128.8 67.8352L123.28 83.7201H134.321L128.8 67.8352Z" fill="white"/>
<path d="M106.105 77.9896C107.63 78.7938 108.824 79.9165 109.686 81.3574C110.548 82.765 110.979 84.3735 110.979 86.1833C110.979 89.0653 109.967 91.4614 107.945 93.3717C105.922 95.2818 103.452 96.237 100.535 96.237H85.6143V61.0491H99.4403C102.292 61.0491 104.696 61.9873 106.652 63.864C108.641 65.7408 109.636 68.053 109.636 70.8011C109.636 73.8172 108.459 76.2134 106.105 77.9896ZM99.4403 66.478H91.3337V75.7273H99.4403C100.7 75.7273 101.761 75.2917 102.623 74.4203C103.485 73.5157 103.916 72.4097 103.916 71.1027C103.916 69.7957 103.485 68.7065 102.623 67.8352C101.761 66.9303 100.7 66.478 99.4403 66.478ZM91.3337 90.8079H100.535C101.861 90.8079 102.971 90.3387 103.867 89.4005C104.795 88.4286 105.259 87.2557 105.259 85.8817C105.259 84.5077 104.795 83.3514 103.867 82.4131C102.971 81.4413 101.861 80.9553 100.535 80.9553H91.3337V90.8079Z" fill="white"/>
<path d="M33.3522 75.476V61.0491H39.0716V96.237H33.3522V81.0057H18.432V96.237H12.7125V61.0491H18.432V75.476H33.3522Z" fill="white"/>
<path d="M229.717 106.002H233.491V115.539H232.252V111.888H230.378L227.938 115.539H226.524L229.029 111.806C228.382 111.66 227.849 111.315 227.426 110.77C227.004 110.234 226.793 109.631 226.793 108.958C226.793 108.141 227.076 107.446 227.641 106.874C228.218 106.293 228.909 106.002 229.717 106.002ZM229.717 110.743H232.252V107.187H229.717C229.268 107.187 228.874 107.36 228.531 107.705C228.199 108.041 228.032 108.459 228.032 108.958C228.032 109.458 228.199 109.88 228.531 110.225C228.874 110.571 229.268 110.743 229.717 110.743Z" fill="white"/>
<path d="M221.574 115.539V106.002H222.825V115.539H221.574Z" fill="white"/>
<path d="M216.823 106.002V114.34H217.835V117.364H216.58V115.539H209.976V106.002H211.23V114.34H215.57V106.002H216.823Z" fill="white"/>
<path d="M206.571 115.539H205.237L204.47 113.4H200.223L199.455 115.539H198.121L201.638 106.002H203.054L206.571 115.539ZM202.339 107.514L200.654 112.214H204.038L202.339 107.514Z" fill="white"/>
<path d="M193.707 110.607C194.732 111.052 195.243 111.829 195.243 112.937C195.243 113.754 194.937 114.422 194.326 114.939C193.724 115.457 192.925 115.716 191.928 115.716C191.046 115.716 190.323 115.521 189.758 115.13C189.2 114.74 188.806 114.204 188.572 113.523L189.636 112.91C189.914 113.981 190.679 114.517 191.928 114.517C192.575 114.517 193.077 114.372 193.436 114.081C193.805 113.791 193.99 113.395 193.99 112.896C193.99 112.396 193.818 112.001 193.477 111.711C193.136 111.411 192.669 111.261 192.076 111.261H190.97V110.103H191.765C192.332 110.103 192.786 109.962 193.127 109.681C193.477 109.39 193.653 109.013 193.653 108.55C193.653 108.087 193.49 107.714 193.168 107.433C192.843 107.151 192.404 107.01 191.846 107.01C190.805 107.01 190.108 107.478 189.758 108.414L188.705 107.801C189.272 106.484 190.319 105.825 191.846 105.825C192.754 105.825 193.486 106.08 194.044 106.588C194.609 107.088 194.893 107.732 194.893 108.523C194.893 109.44 194.498 110.135 193.707 110.607Z" fill="white"/>
<path d="M183.595 115.539V106.002H184.847V115.539H183.595Z" fill="white"/>
<path d="M178.043 110.048V106.002H179.283V115.539H178.043V111.247H173.46V115.539H172.207V106.002H173.46V110.048H178.043Z" fill="white"/>
<path d="M168.803 115.539H167.468L166.7 113.4H162.454L161.686 115.539H160.352L163.87 106.002H165.285L168.803 115.539ZM164.571 107.514L162.886 112.214H166.269L164.571 107.514Z" fill="white"/>
<path d="M153.501 106.002H158.798V107.201H154.754V115.539H153.501V106.002Z" fill="white"/>
<path d="M143.259 106.002H146.682C147.545 106.002 148.268 106.297 148.853 106.888C149.437 107.478 149.729 108.205 149.729 109.067C149.729 109.93 149.437 110.657 148.853 111.247C148.268 111.838 147.545 112.133 146.682 112.133H144.512V115.539H143.259V106.002ZM144.512 110.947H146.682C147.213 110.947 147.644 110.77 147.976 110.416C148.318 110.044 148.489 109.594 148.489 109.067C148.489 108.522 148.318 108.073 147.976 107.719C147.635 107.364 147.204 107.187 146.682 107.187H144.512V110.947Z" fill="white"/>
<path d="M129.688 110.771C129.688 109.39 130.16 108.223 131.103 107.269C132.047 106.307 133.201 105.825 134.567 105.825C135.933 105.825 137.088 106.307 138.031 107.269C138.984 108.223 139.46 109.39 139.46 110.771C139.46 112.142 138.984 113.309 138.031 114.272C137.088 115.235 135.933 115.716 134.567 115.716C133.201 115.716 132.047 115.235 131.103 114.272C130.16 113.3 129.688 112.133 129.688 110.771ZM138.207 110.771C138.207 109.717 137.856 108.836 137.155 108.128C136.472 107.41 135.61 107.051 134.567 107.051C133.534 107.051 132.667 107.41 131.966 108.128C131.274 108.845 130.928 109.726 130.928 110.771C130.928 111.806 131.274 112.687 131.966 113.414C132.667 114.122 133.534 114.476 134.567 114.476C135.61 114.476 136.472 114.122 137.155 113.414C137.856 112.687 138.207 111.806 138.207 110.771Z" fill="white"/>
<path d="M121.121 115.539H119.787L119.018 113.4H114.773L114.004 115.539H112.67L116.188 106.002H117.603L121.121 115.539ZM116.889 107.514L115.204 112.214H118.587L116.889 107.514Z" fill="white"/>
<path d="M105.694 110.634L109.994 115.539H108.457L104.387 110.961V115.539H103.133V106.002H104.387V110.307L108.323 106.002H109.859L105.694 110.634Z" fill="white"/>
<path d="M94.145 109.408H96.3152C97.1778 109.408 97.9013 109.703 98.4852 110.294C99.0693 110.884 99.3614 111.611 99.3614 112.473C99.3614 113.345 99.0693 114.076 98.4852 114.667C97.9102 115.248 97.1867 115.539 96.3152 115.539H92.8916V106.002H94.145V109.408ZM94.145 114.353H96.3152C96.8363 114.353 97.2677 114.176 97.6092 113.822C97.9506 113.468 98.1214 113.018 98.1214 112.473C98.1214 111.947 97.9506 111.502 97.6092 111.138C97.2766 110.775 96.8454 110.593 96.3152 110.593H94.145V114.353Z" fill="white"/>
<path d="M85.1099 115.716C83.672 115.716 82.4905 115.239 81.5649 114.286C80.6392 113.341 80.1765 112.169 80.1765 110.771C80.1765 109.372 80.6392 108.2 81.5649 107.256C82.4905 106.302 83.672 105.825 85.1099 105.825C85.9636 105.825 86.7543 106.034 87.4822 106.452C88.2099 106.87 88.776 107.433 89.1804 108.141L88.0887 108.782C87.8191 108.255 87.4147 107.837 86.8755 107.528C86.3453 107.21 85.7568 107.051 85.1099 107.051C84.0136 107.051 83.1239 107.405 82.441 108.114C81.7581 108.813 81.4166 109.699 81.4166 110.771C81.4166 111.833 81.7581 112.714 82.441 113.414C83.1239 114.122 84.0136 114.476 85.1099 114.476C85.7568 114.476 86.3453 114.322 86.8755 114.013C87.4147 113.695 87.8191 113.277 88.0887 112.76L89.1804 113.386C88.7851 114.095 88.2234 114.662 87.4955 115.089C86.7767 115.507 85.9814 115.716 85.1099 115.716Z" fill="white"/>
<path d="M76.0716 106.002V114.34H77.0825V117.364H75.8288V115.539H69.6016V117.364H68.348V114.34H69.1702C69.7543 113.595 70.0464 112.478 70.0464 110.988V106.002H76.0716ZM70.5857 114.34H74.818V107.187H71.3V111.016C71.3 112.451 71.0619 113.559 70.5857 114.34Z" fill="white"/>
<path d="M65.7391 115.539H64.4047L63.6364 113.4H59.3906L58.6223 115.539H57.2878L60.8058 106.002H62.2212L65.7391 115.539ZM61.5068 107.514L59.8218 112.214H63.205L61.5068 107.514Z" fill="white"/>
<path d="M52.4665 106.002H53.8817V115.539H52.6416V108.086L49.555 113.277H49.3933L46.3065 108.1V115.539H45.0531V106.002H46.4683L49.4741 111.043L52.4665 106.002Z" fill="white"/>
<path d="M31.4827 110.771C31.4827 109.39 31.9545 108.223 32.8979 107.269C33.8415 106.307 34.9962 105.825 36.3621 105.825C37.7278 105.825 38.8825 106.307 39.8261 107.269C40.7786 108.223 41.2548 109.39 41.2548 110.771C41.2548 112.142 40.7786 113.309 39.8261 114.272C38.8825 115.235 37.7278 115.716 36.3621 115.716C34.9962 115.716 33.8415 115.235 32.8979 114.272C31.9545 113.3 31.4827 112.133 31.4827 110.771ZM40.0012 110.771C40.0012 109.717 39.6508 108.836 38.9499 108.128C38.2671 107.41 37.4043 107.051 36.3621 107.051C35.3286 107.051 34.4615 107.41 33.7605 108.128C33.0686 108.845 32.7228 109.726 32.7228 110.771C32.7228 111.806 33.0686 112.687 33.7605 113.414C34.4615 114.122 35.3286 114.476 36.3621 114.476C37.4043 114.476 38.2671 114.122 38.9499 113.414C39.6508 112.687 40.0012 111.806 40.0012 110.771Z" fill="white"/>
<path d="M21.8048 106.002H25.2284C26.091 106.002 26.8145 106.297 27.3986 106.888C27.9827 107.478 28.2747 108.205 28.2747 109.067C28.2747 109.93 27.9827 110.657 27.3986 111.247C26.8145 111.838 26.091 112.133 25.2284 112.133H23.0583V115.539H21.8048V106.002ZM23.0583 110.947H25.2284C25.7586 110.947 26.19 110.77 26.5225 110.416C26.8638 110.044 27.0346 109.594 27.0346 109.067C27.0346 108.522 26.8638 108.073 26.5225 107.719C26.1809 107.364 25.7497 107.187 25.2284 107.187H23.0583V110.947Z" fill="white"/>
<path d="M12.9712 106.002H18.2684V107.201H14.2247V115.539H12.9712V106.002Z" fill="white"/>
<path d="M56.9886 61.147C54.1992 61.9801 51.7069 63.5057 49.5121 65.7241C46.0308 69.2429 44.29 73.5491 44.29 78.643C44.29 83.7369 46.0308 88.06 49.5121 91.6123C53.0267 95.1312 57.3039 96.8905 62.3436 96.8905C67.3833 96.8905 71.6439 95.1312 75.1254 91.6123C78.6398 88.06 80.3971 83.7369 80.3971 78.643C80.3971 73.5491 78.6398 69.2429 75.1254 65.7241C73.0914 63.6488 70.7915 62.1796 68.2257 61.3167V67.4476C69.2612 68.0119 70.2183 68.7445 71.0969 69.645C73.4841 72.0243 74.6777 75.0238 74.6777 78.643C74.6777 82.2624 73.4841 85.2785 71.0969 87.6913C68.7427 90.0708 65.825 91.2604 62.3436 91.2604C58.8953 91.2604 55.9611 90.0708 53.5406 87.6913C51.1866 85.245 50.0095 82.2289 50.0095 78.643C50.0095 75.0238 51.1866 72.0243 53.5406 69.645C54.5852 68.5892 55.7346 67.7643 56.9886 67.1706V61.147Z" fill="#FFB200"/>
<path d="M65.4164 56.4849H59.7979V70.682H65.4164V56.4849Z" fill="#FFB200"/>
<path d="M123.311 1.84692H115.079V33.8856H123.311V1.84692Z" fill="#FFA600"/>
<path fill-rule="evenodd" clip-rule="evenodd" d="M94.3624 35.9586L102.309 34.6947L88.3309 3.74146L80.384 5.00542L94.3624 35.9586Z" fill="#FFAA00"/>
<path fill-rule="evenodd" clip-rule="evenodd" d="M142.791 35.9998L134.844 34.7359L148.822 3.79639L156.769 5.06035L142.791 35.9998Z" fill="#FF9500"/>
<path fill-rule="evenodd" clip-rule="evenodd" d="M75.358 41.1801L82.4761 38.7345L55.4841 10.9824L48.366 13.4279L75.358 41.1801Z" fill="#FFB300"/>
<path fill-rule="evenodd" clip-rule="evenodd" d="M161.795 41.2213L154.676 38.7895L181.668 11.0374L188.787 13.4828L161.795 41.2213Z" fill="#FF8800"/>
<path fill-rule="evenodd" clip-rule="evenodd" d="M59.0294 49.121L64.7891 45.6587L26.9568 23.0037L21.1836 26.4659L59.0294 49.121Z" fill="#FFCC00"/>
<path fill-rule="evenodd" clip-rule="evenodd" d="M177.797 49.1616L171.983 45.7132L210.142 23.0581L215.956 26.5065L177.797 49.1616Z" fill="#FF7300"/>
<path fill-rule="evenodd" clip-rule="evenodd" d="M189.669 59.0675L185.553 54.836L232.298 38.8303L236.414 43.0482L189.669 59.0675Z" fill="#FF5E00"/>
<path fill-rule="evenodd" clip-rule="evenodd" d="M34.524 55.001L0.739746 43.0072L4.70636 38.7756L49.8199 54.795L49.616 55.001H34.524Z" fill="#FFE100"/>
<path fill-rule="evenodd" clip-rule="evenodd" d="M225.736 66.5825L248.816 62.8593L246.709 58.147L195.374 66.4313L195.443 66.5825H225.736Z" fill="#FF4D00"/>
</svg>
